<svg xmlns="http://www.w3.org/2000/svg" width="2998px" height="2480px" viewBox="0 0 2998 2480" xmlns:xlink="http://www.w3.org/1999/xlink" style="overflow: hidden; display: block; width: 2998px; height: 2480px;"><rect width="2998px" height="2480px" fill="#1E1E1E"/><defs><path fill="rgb(255,140,0)" stroke="rgb(255,140,0)" d="M 5,-5 L 0,0 L 5,5 Z" fill-opacity="1" stroke-opacity="1" stroke-width="1" stroke-linecap="butt" stroke-linejoin="miter" stroke-miterlimit="10" id="ygc709_0"/><path fill="rgb(255,140,0)" stroke="rgb(255,140,0)" d="M 5,-5 L 0,0 L 5,5 Z" fill-opacity="1" stroke-opacity="1" stroke-width="1" stroke-linecap="butt" stroke-linejoin="miter" stroke-miterlimit="10" id="ygc709_1"/><path fill="rgb(255,140,0)" stroke="rgb(255,140,0)" d="M 5,-5 L 0,0 L 5,5 Z" fill-opacity="1" stroke-opacity="1" stroke-width="1" stroke-linecap="butt" stroke-linejoin="miter" stroke-miterlimit="10" id="ygc709_2"/><path fill="rgb(255,140,0)" stroke="rgb(255,140,0)" d="M 5,-5 L 0,0 L 5,5 Z" fill-opacity="1" stroke-opacity="1" stroke-width="1" stroke-linecap="butt" stroke-linejoin="miter" stroke-miterlimit="10" id="ygc709_3"/><path fill="rgb(255,140,0)" stroke="rgb(255,140,0)" d="M 5,-5 L 0,0 L 5,5 Z" fill-opacity="1" stroke-opacity="1" stroke-width="1" stroke-linecap="butt" stroke-linejoin="miter" stroke-miterlimit="10" id="ygc709_4"/><path fill="rgb(255,140,0)" stroke="rgb(255,140,0)" d="M 5,-5 L 0,0 L 5,5 Z" fill-opacity="1" stroke-opacity="1" stroke-width="1" stroke-linecap="butt" stroke-linejoin="miter" stroke-miterlimit="10" id="ygc709_5"/><path fill="rgb(253,223,152)" stroke="rgb(253,223,152)" d="M 5,-5 L 0,0 L 5,5 Z" fill-opacity="1" stroke-opacity="1" stroke-width="1" stroke-linecap="butt" stroke-linejoin="miter" stroke-miterlimit="10" id="ygc709_6"/><path fill="rgb(253,223,152)" stroke="rgb(253,223,152)" d="M 5,-5 L 0,0 L 5,5 Z" fill-opacity="1" stroke-opacity="1" stroke-width="1" stroke-linecap="butt" stroke-linejoin="miter" stroke-miterlimit="10" id="ygc709_7"/><path fill="rgb(253,223,152)" stroke="rgb(253,223,152)" d="M 5,-5 L 0,0 L 5,5 Z" fill-opacity="1" stroke-opacity="1" stroke-width="1" stroke-linecap="butt" stroke-linejoin="miter" stroke-miterlimit="10" id="ygc709_8"/><path fill="rgb(253,223,152)" stroke="rgb(253,223,152)" d="M 5,-5 L 0,0 L 5,5 Z" fill-opacity="1" stroke-opacity="1" stroke-width="1" stroke-linecap="butt" stroke-linejoin="miter" stroke-miterlimit="10" id="ygc709_9"/><path fill="rgb(253,223,152)" stroke="rgb(253,223,152)" d="M 5,-5 L 0,0 L 5,5 Z" fill-opacity="1" stroke-opacity="1" stroke-width="1" stroke-linecap="butt" stroke-linejoin="miter" stroke-miterlimit="10" id="ygc709_10"/><path fill="rgb(255,140,0)" stroke="rgb(255,140,0)" d="M 5,-5 L 0,0 L 5,5 Z" fill-opacity="1" stroke-opacity="1" stroke-width="1" stroke-linecap="butt" stroke-linejoin="miter" stroke-miterlimit="10" id="ygc709_11"/><path fill="rgb(255,140,0)" stroke="rgb(255,140,0)" d="M 5,-5 L 0,0 L 5,5 Z" fill-opacity="1" stroke-opacity="1" stroke-width="1" stroke-linecap="butt" stroke-linejoin="miter" stroke-miterlimit="10" id="ygc709_12"/><path fill="rgb(255,140,0)" stroke="rgb(255,140,0)" d="M 5,-5 L 0,0 L 5,5 Z" fill-opacity="1" stroke-opacity="1" stroke-width="1" stroke-linecap="butt" stroke-linejoin="miter" stroke-miterlimit="10" id="ygc709_13"/><path fill="rgb(255,140,0)" stroke="rgb(255,140,0)" d="M 5,-5 L 0,0 L 5,5 Z" fill-opacity="1" stroke-opacity="1" stroke-width="1" stroke-linecap="butt" stroke-linejoin="miter" stroke-miterlimit="10" id="ygc709_14"/></defs><g style="pointer-events:visiblePainted" transform="translate(62042.5 21655)" image-rendering="auto" shape-rendering="auto"><g><svg xmlns="http://www.w3.org/2000/svg" version="1.1" id="usericon_female1" x="-59400" y="-20370" width="120" height="120" viewBox="0 0 75 75" xml:space="preserve" preserveAspectRatio="none">
    <path fill="#FFFFFF" d="M41.39,25.38c0,0.13-0.05,0.25-0.14,0.34l-3.64,3.64l-0.68,0.68c-0.09,0.09-0.21,0.14-0.34,0.14       s-0.25-0.05-0.34-0.14l-0.68-0.68l-1.82-1.82c-0.09-0.09-0.14-0.21-0.14-0.34s0.05-0.25,0.14-0.34l0.68-0.68       c0.09-0.09,0.21-0.14,0.34-0.14s0.25,0.05,0.34,0.14l1.48,1.48l3.29-3.3c0.09-0.09,0.21-0.14,0.34-0.14s0.25,0.05,0.34,0.14       l0.68,0.68C41.35,25.13,41.39,25.25,41.39,25.38z"/>
    <circle fill="#F4E6DC" stroke="#EADCD3" stroke-miterlimit="10" cx="37.5" cy="37.5" r="37"/>
    <rect x="18.37" y="29.42" fill="#B7B7B7" width="37.66" height="25.01"/>
    <path fill="#998474" d="M47.08,52.05h-5.69v-5.67H33v5.67h-6.52c-7.32,0-13.35,5.48-14.24,12.55c6.6,6.14,15.45,9.9,25.18,9.9       c9.16,0,17.53-3.33,23.99-8.84C61.01,58.08,54.76,52.05,47.08,52.05z"/>
    <path fill="#8E7968" d="M47.08,52.05h-5.69v-5.67h-3.97V74.5c0.03,0,0.06,0,0.09,0c9.12,0,17.46-3.3,23.91-8.77       C61.05,58.12,54.78,52.05,47.08,52.05z"/>
    <circle opacity="0.05" cx="37.19" cy="33.39" r="15.62"/>
    <circle fill="#998474" cx="36.78" cy="32.05" r="15.62"/>
    <path fill="#8E7968" d="M37.19,16.45v31.2c8.43-0.22,15.21-7.11,15.21-15.6S45.63,16.67,37.19,16.45z"/>
    <path opacity="0.1" fill="#56513A" d="M56.71,42.07l-0.23-15.12c-1.23-9.81-9.59-16.07-19.74-16.07c-9.9,0-18.09,6.6-19.62,16.07       l-0.47,15.1c-3.37,0.5-5.95,3.4-5.95,6.9c0,3.86,3.13,6.99,6.99,6.99c3.35,0,6.88-2.35,7.56-5.49l0,0       c0.07-0.42,0.16-0.86,0.16-1.3c0,0-0.04-14.81,0-19.42c1.52,0.54,2.51,0.84,4.22,0.84c6.11,0,11.55-1.66,13.71-7       c1.16,1.45,2.66,2.75,4.69,2.75c0.11,0,0,29.5,0,29.5l8.89,0c3.23-0.62,5.67-3.45,5.67-6.86C62.58,45.48,60.03,42.6,56.71,42.07z"/>
    <path fill="#E3E7E8" d="M56.71,40.82L56.48,25.7c-1.23-9.81-9.59-16.07-19.74-16.07c-9.9,0-18.09,6.6-19.62,16.07l-0.47,15.1       c-3.37,0.5-5.95,3.4-5.95,6.9c0,3.86,3.13,6.99,6.99,6.99c3.35,0,6.3-2.35,6.98-5.49h-0.03c0.07-0.42,0.11-0.86,0.11-1.3       c0,0-0.01-14.81,0.03-19.42c1.52,0.54,3.14,0.84,4.85,0.84c6.11,0,11.34-2.13,13.5-7.47c1.16,1.45,3.28,3.21,5.31,3.21       c0.11,0,0,29.5,0,29.5l8.48,0c3.23-0.62,5.67-3.45,5.67-6.86C62.58,44.23,60.03,41.35,56.71,40.82z"/>
    <path fill="#C1C5C6" d="M21.41,27.98V46.2h-0.03c-0.25,2.66-2.49,4.74-5.22,4.74c-2.83,0-5.13-2.24-5.23-5.04       c-0.16,0.58-0.24,1.19-0.24,1.81c0,3.86,3.13,6.99,6.99,6.99c3.35,0,6.3-2.35,6.98-5.49h-0.03c0.07-0.42,0.11-0.86,0.11-1.3       c0,0-0.01-14.48,0.03-19.25C23.62,28.55,22.49,28.32,21.41,27.98z"/>
    <g>
      <path fill="#C1C5C6" d="M56.71,40.85l-0.23-15.12c-1.03-8.25-7.11-13.97-15.05-15.59c0.19,0.97,0.29,1.96,0.29,2.98         c0,8.63-6.99,15.62-15.62,15.62c-0.23,0-0.46-0.02-0.7-0.04c1.34,0.41,2.75,0.65,4.22,0.65c6.11,0,11.34-2.13,13.5-7.47         c1.16,1.45,3.28,3.21,5.31,3.21c0.11,0,0,29.5,0,29.5l8.48,0c3.23-0.62,5.67-3.45,5.67-6.86C62.58,44.26,60.03,41.38,56.71,40.85         z"/>
    </g>
    <path fill="#63D5DB" d="M47.08,52.05l-9.53,13.16L26.48,52.05c-7.29,0-13.3,5.44-14.23,12.48c6.61,6.18,15.49,9.97,25.25,9.97       c9.12,0,17.46-3.3,23.91-8.77C61.05,58.12,54.78,52.05,47.08,52.05z"/>
    <path fill="#33BDD3" d="M47.08,52.05L37.5,65.21v9.29h0c9.12,0,17.46-3.31,23.91-8.77C61.05,58.12,54.78,52.05,47.08,52.05z"/>
  </svg></g><g><svg xmlns="http://www.w3.org/2000/svg" version="1.1" id="usericon_female1" x="-59370" y="-20520" width="120" height="120" viewBox="0 0 75 75" xml:space="preserve" preserveAspectRatio="none">
    <path fill="#FFFFFF" d="M41.39,25.38c0,0.13-0.05,0.25-0.14,0.34l-3.64,3.64l-0.68,0.68c-0.09,0.09-0.21,0.14-0.34,0.14       s-0.25-0.05-0.34-0.14l-0.68-0.68l-1.82-1.82c-0.09-0.09-0.14-0.21-0.14-0.34s0.05-0.25,0.14-0.34l0.68-0.68       c0.09-0.09,0.21-0.14,0.34-0.14s0.25,0.05,0.34,0.14l1.48,1.48l3.29-3.3c0.09-0.09,0.21-0.14,0.34-0.14s0.25,0.05,0.34,0.14       l0.68,0.68C41.35,25.13,41.39,25.25,41.39,25.38z"/>
    <circle fill="#F4E6DC" stroke="#EADCD3" stroke-miterlimit="10" cx="37.5" cy="37.5" r="37"/>
    <rect x="18.37" y="29.42" fill="#B7B7B7" width="37.66" height="25.01"/>
    <path fill="#998474" d="M47.08,52.05h-5.69v-5.67H33v5.67h-6.52c-7.32,0-13.35,5.48-14.24,12.55c6.6,6.14,15.45,9.9,25.18,9.9       c9.16,0,17.53-3.33,23.99-8.84C61.01,58.08,54.76,52.05,47.08,52.05z"/>
    <path fill="#8E7968" d="M47.08,52.05h-5.69v-5.67h-3.97V74.5c0.03,0,0.06,0,0.09,0c9.12,0,17.46-3.3,23.91-8.77       C61.05,58.12,54.78,52.05,47.08,52.05z"/>
    <circle opacity="0.05" cx="37.19" cy="33.39" r="15.62"/>
    <circle fill="#998474" cx="36.78" cy="32.05" r="15.62"/>
    <path fill="#8E7968" d="M37.19,16.45v31.2c8.43-0.22,15.21-7.11,15.21-15.6S45.63,16.67,37.19,16.45z"/>
    <path opacity="0.1" fill="#56513A" d="M56.71,42.07l-0.23-15.12c-1.23-9.81-9.59-16.07-19.74-16.07c-9.9,0-18.09,6.6-19.62,16.07       l-0.47,15.1c-3.37,0.5-5.95,3.4-5.95,6.9c0,3.86,3.13,6.99,6.99,6.99c3.35,0,6.88-2.35,7.56-5.49l0,0       c0.07-0.42,0.16-0.86,0.16-1.3c0,0-0.04-14.81,0-19.42c1.52,0.54,2.51,0.84,4.22,0.84c6.11,0,11.55-1.66,13.71-7       c1.16,1.45,2.66,2.75,4.69,2.75c0.11,0,0,29.5,0,29.5l8.89,0c3.23-0.62,5.67-3.45,5.67-6.86C62.58,45.48,60.03,42.6,56.71,42.07z"/>
    <path fill="#E3E7E8" d="M56.71,40.82L56.48,25.7c-1.23-9.81-9.59-16.07-19.74-16.07c-9.9,0-18.09,6.6-19.62,16.07l-0.47,15.1       c-3.37,0.5-5.95,3.4-5.95,6.9c0,3.86,3.13,6.99,6.99,6.99c3.35,0,6.3-2.35,6.98-5.49h-0.03c0.07-0.42,0.11-0.86,0.11-1.3       c0,0-0.01-14.81,0.03-19.42c1.52,0.54,3.14,0.84,4.85,0.84c6.11,0,11.34-2.13,13.5-7.47c1.16,1.45,3.28,3.21,5.31,3.21       c0.11,0,0,29.5,0,29.5l8.48,0c3.23-0.62,5.67-3.45,5.67-6.86C62.58,44.23,60.03,41.35,56.71,40.82z"/>
    <path fill="#C1C5C6" d="M21.41,27.98V46.2h-0.03c-0.25,2.66-2.49,4.74-5.22,4.74c-2.83,0-5.13-2.24-5.23-5.04       c-0.16,0.58-0.24,1.19-0.24,1.81c0,3.86,3.13,6.99,6.99,6.99c3.35,0,6.3-2.35,6.98-5.49h-0.03c0.07-0.42,0.11-0.86,0.11-1.3       c0,0-0.01-14.48,0.03-19.25C23.62,28.55,22.49,28.32,21.41,27.98z"/>
    <g>
      <path fill="#C1C5C6" d="M56.71,40.85l-0.23-15.12c-1.03-8.25-7.11-13.97-15.05-15.59c0.19,0.97,0.29,1.96,0.29,2.98         c0,8.63-6.99,15.62-15.62,15.62c-0.23,0-0.46-0.02-0.7-0.04c1.34,0.41,2.75,0.65,4.22,0.65c6.11,0,11.34-2.13,13.5-7.47         c1.16,1.45,3.28,3.21,5.31,3.21c0.11,0,0,29.5,0,29.5l8.48,0c3.23-0.62,5.67-3.45,5.67-6.86C62.58,44.26,60.03,41.38,56.71,40.85         z"/>
    </g>
    <path fill="#63D5DB" d="M47.08,52.05l-9.53,13.16L26.48,52.05c-7.29,0-13.3,5.44-14.23,12.48c6.61,6.18,15.49,9.97,25.25,9.97       c9.12,0,17.46-3.3,23.91-8.77C61.05,58.12,54.78,52.05,47.08,52.05z"/>
    <path fill="#33BDD3" d="M47.08,52.05L37.5,65.21v9.29h0c9.12,0,17.46-3.31,23.91-8.77C61.05,58.12,54.78,52.05,47.08,52.05z"/>
  </svg></g><g><svg xmlns="http://www.w3.org/2000/svg" version="1.1" id="usericon_female1" x="-59250" y="-20250" width="120" height="120" viewBox="0 0 75 75" xml:space="preserve" preserveAspectRatio="none">
    <path fill="#FFFFFF" d="M41.39,25.38c0,0.13-0.05,0.25-0.14,0.34l-3.64,3.64l-0.68,0.68c-0.09,0.09-0.21,0.14-0.34,0.14       s-0.25-0.05-0.34-0.14l-0.68-0.68l-1.82-1.82c-0.09-0.09-0.14-0.21-0.14-0.34s0.05-0.25,0.14-0.34l0.68-0.68       c0.09-0.09,0.21-0.14,0.34-0.14s0.25,0.05,0.34,0.14l1.48,1.48l3.29-3.3c0.09-0.09,0.21-0.14,0.34-0.14s0.25,0.05,0.34,0.14       l0.68,0.68C41.35,25.13,41.39,25.25,41.39,25.38z"/>
    <circle fill="#F4E6DC" stroke="#EADCD3" stroke-miterlimit="10" cx="37.5" cy="37.5" r="37"/>
    <rect x="18.37" y="29.42" fill="#B7B7B7" width="37.66" height="25.01"/>
    <path fill="#998474" d="M47.08,52.05h-5.69v-5.67H33v5.67h-6.52c-7.32,0-13.35,5.48-14.24,12.55c6.6,6.14,15.45,9.9,25.18,9.9       c9.16,0,17.53-3.33,23.99-8.84C61.01,58.08,54.76,52.05,47.08,52.05z"/>
    <path fill="#8E7968" d="M47.08,52.05h-5.69v-5.67h-3.97V74.5c0.03,0,0.06,0,0.09,0c9.12,0,17.46-3.3,23.91-8.77       C61.05,58.12,54.78,52.05,47.08,52.05z"/>
    <circle opacity="0.05" cx="37.19" cy="33.39" r="15.62"/>
    <circle fill="#998474" cx="36.78" cy="32.05" r="15.62"/>
    <path fill="#8E7968" d="M37.19,16.45v31.2c8.43-0.22,15.21-7.11,15.21-15.6S45.63,16.67,37.19,16.45z"/>
    <path opacity="0.1" fill="#56513A" d="M56.71,42.07l-0.23-15.12c-1.23-9.81-9.59-16.07-19.74-16.07c-9.9,0-18.09,6.6-19.62,16.07       l-0.47,15.1c-3.37,0.5-5.95,3.4-5.95,6.9c0,3.86,3.13,6.99,6.99,6.99c3.35,0,6.88-2.35,7.56-5.49l0,0       c0.07-0.42,0.16-0.86,0.16-1.3c0,0-0.04-14.81,0-19.42c1.52,0.54,2.51,0.84,4.22,0.84c6.11,0,11.55-1.66,13.71-7       c1.16,1.45,2.66,2.75,4.69,2.75c0.11,0,0,29.5,0,29.5l8.89,0c3.23-0.62,5.67-3.45,5.67-6.86C62.58,45.48,60.03,42.6,56.71,42.07z"/>
    <path fill="#E3E7E8" d="M56.71,40.82L56.48,25.7c-1.23-9.81-9.59-16.07-19.74-16.07c-9.9,0-18.09,6.6-19.62,16.07l-0.47,15.1       c-3.37,0.5-5.95,3.4-5.95,6.9c0,3.86,3.13,6.99,6.99,6.99c3.35,0,6.3-2.35,6.98-5.49h-0.03c0.07-0.42,0.11-0.86,0.11-1.3       c0,0-0.01-14.81,0.03-19.42c1.52,0.54,3.14,0.84,4.85,0.84c6.11,0,11.34-2.13,13.5-7.47c1.16,1.45,3.28,3.21,5.31,3.21       c0.11,0,0,29.5,0,29.5l8.48,0c3.23-0.62,5.67-3.45,5.67-6.86C62.58,44.23,60.03,41.35,56.71,40.82z"/>
    <path fill="#C1C5C6" d="M21.41,27.98V46.2h-0.03c-0.25,2.66-2.49,4.74-5.22,4.74c-2.83,0-5.13-2.24-5.23-5.04       c-0.16,0.58-0.24,1.19-0.24,1.81c0,3.86,3.13,6.99,6.99,6.99c3.35,0,6.3-2.35,6.98-5.49h-0.03c0.07-0.42,0.11-0.86,0.11-1.3       c0,0-0.01-14.48,0.03-19.25C23.62,28.55,22.49,28.32,21.41,27.98z"/>
    <g>
      <path fill="#C1C5C6" d="M56.71,40.85l-0.23-15.12c-1.03-8.25-7.11-13.97-15.05-15.59c0.19,0.97,0.29,1.96,0.29,2.98         c0,8.63-6.99,15.62-15.62,15.62c-0.23,0-0.46-0.02-0.7-0.04c1.34,0.41,2.75,0.65,4.22,0.65c6.11,0,11.34-2.13,13.5-7.47         c1.16,1.45,3.28,3.21,5.31,3.21c0.11,0,0,29.5,0,29.5l8.48,0c3.23-0.62,5.67-3.45,5.67-6.86C62.58,44.26,60.03,41.38,56.71,40.85         z"/>
    </g>
    <path fill="#63D5DB" d="M47.08,52.05l-9.53,13.16L26.48,52.05c-7.29,0-13.3,5.44-14.23,12.48c6.61,6.18,15.49,9.97,25.25,9.97       c9.12,0,17.46-3.3,23.91-8.77C61.05,58.12,54.78,52.05,47.08,52.05z"/>
    <path fill="#33BDD3" d="M47.08,52.05L37.5,65.21v9.29h0c9.12,0,17.46-3.31,23.91-8.77C61.05,58.12,54.78,52.05,47.08,52.05z"/>
  </svg></g><g><svg xmlns="http://www.w3.org/2000/svg" version="1.1" id="usericon_female1" x="-59250" y="-20100" width="120" height="120" viewBox="0 0 75 75" xml:space="preserve" preserveAspectRatio="none">
    <path fill="#FFFFFF" d="M41.39,25.38c0,0.13-0.05,0.25-0.14,0.34l-3.64,3.64l-0.68,0.68c-0.09,0.09-0.21,0.14-0.34,0.14       s-0.25-0.05-0.34-0.14l-0.68-0.68l-1.82-1.82c-0.09-0.09-0.14-0.21-0.14-0.34s0.05-0.25,0.14-0.34l0.68-0.68       c0.09-0.09,0.21-0.14,0.34-0.14s0.25,0.05,0.34,0.14l1.48,1.48l3.29-3.3c0.09-0.09,0.21-0.14,0.34-0.14s0.25,0.05,0.34,0.14       l0.68,0.68C41.35,25.13,41.39,25.25,41.39,25.38z"/>
    <circle fill="#F4E6DC" stroke="#EADCD3" stroke-miterlimit="10" cx="37.5" cy="37.5" r="37"/>
    <rect x="18.37" y="29.42" fill="#B7B7B7" width="37.66" height="25.01"/>
    <path fill="#998474" d="M47.08,52.05h-5.69v-5.67H33v5.67h-6.52c-7.32,0-13.35,5.48-14.24,12.55c6.6,6.14,15.45,9.9,25.18,9.9       c9.16,0,17.53-3.33,23.99-8.84C61.01,58.08,54.76,52.05,47.08,52.05z"/>
    <path fill="#8E7968" d="M47.08,52.05h-5.69v-5.67h-3.97V74.5c0.03,0,0.06,0,0.09,0c9.12,0,17.46-3.3,23.91-8.77       C61.05,58.12,54.78,52.05,47.08,52.05z"/>
    <circle opacity="0.05" cx="37.19" cy="33.39" r="15.62"/>
    <circle fill="#998474" cx="36.78" cy="32.05" r="15.62"/>
    <path fill="#8E7968" d="M37.19,16.45v31.2c8.43-0.22,15.21-7.11,15.21-15.6S45.63,16.67,37.19,16.45z"/>
    <path opacity="0.1" fill="#56513A" d="M56.71,42.07l-0.23-15.12c-1.23-9.81-9.59-16.07-19.74-16.07c-9.9,0-18.09,6.6-19.62,16.07       l-0.47,15.1c-3.37,0.5-5.95,3.4-5.95,6.9c0,3.86,3.13,6.99,6.99,6.99c3.35,0,6.88-2.35,7.56-5.49l0,0       c0.07-0.42,0.16-0.86,0.16-1.3c0,0-0.04-14.81,0-19.42c1.52,0.54,2.51,0.84,4.22,0.84c6.11,0,11.55-1.66,13.71-7       c1.16,1.45,2.66,2.75,4.69,2.75c0.11,0,0,29.5,0,29.5l8.89,0c3.23-0.62,5.67-3.45,5.67-6.86C62.58,45.48,60.03,42.6,56.71,42.07z"/>
    <path fill="#E3E7E8" d="M56.71,40.82L56.48,25.7c-1.23-9.81-9.59-16.07-19.74-16.07c-9.9,0-18.09,6.6-19.62,16.07l-0.47,15.1       c-3.37,0.5-5.95,3.4-5.95,6.9c0,3.86,3.13,6.99,6.99,6.99c3.35,0,6.3-2.35,6.98-5.49h-0.03c0.07-0.42,0.11-0.86,0.11-1.3       c0,0-0.01-14.81,0.03-19.42c1.52,0.54,3.14,0.84,4.85,0.84c6.11,0,11.34-2.13,13.5-7.47c1.16,1.45,3.28,3.21,5.31,3.21       c0.11,0,0,29.5,0,29.5l8.48,0c3.23-0.62,5.67-3.45,5.67-6.86C62.58,44.23,60.03,41.35,56.71,40.82z"/>
    <path fill="#C1C5C6" d="M21.41,27.98V46.2h-0.03c-0.25,2.66-2.49,4.74-5.22,4.74c-2.83,0-5.13-2.24-5.23-5.04       c-0.16,0.58-0.24,1.19-0.24,1.81c0,3.86,3.13,6.99,6.99,6.99c3.35,0,6.3-2.35,6.98-5.49h-0.03c0.07-0.42,0.11-0.86,0.11-1.3       c0,0-0.01-14.48,0.03-19.25C23.62,28.55,22.49,28.32,21.41,27.98z"/>
    <g>
      <path fill="#C1C5C6" d="M56.71,40.85l-0.23-15.12c-1.03-8.25-7.11-13.97-15.05-15.59c0.19,0.97,0.29,1.96,0.29,2.98         c0,8.63-6.99,15.62-15.62,15.62c-0.23,0-0.46-0.02-0.7-0.04c1.34,0.41,2.75,0.65,4.22,0.65c6.11,0,11.34-2.13,13.5-7.47         c1.16,1.45,3.28,3.21,5.31,3.21c0.11,0,0,29.5,0,29.5l8.48,0c3.23-0.62,5.67-3.45,5.67-6.86C62.58,44.26,60.03,41.38,56.71,40.85         z"/>
    </g>
    <path fill="#63D5DB" d="M47.08,52.05l-9.53,13.16L26.48,52.05c-7.29,0-13.3,5.44-14.23,12.48c6.61,6.18,15.49,9.97,25.25,9.97       c9.12,0,17.46-3.3,23.91-8.77C61.05,58.12,54.78,52.05,47.08,52.05z"/>
    <path fill="#33BDD3" d="M47.08,52.05L37.5,65.21v9.29h0c9.12,0,17.46-3.31,23.91-8.77C61.05,58.12,54.78,52.05,47.08,52.05z"/>
  </svg></g><g><svg xmlns="http://www.w3.org/2000/svg" version="1.1" id="usericon_female1" x="-59400" y="-20040" width="120" height="120" viewBox="0 0 75 75" xml:space="preserve" preserveAspectRatio="none">
    <path fill="#FFFFFF" d="M41.39,25.38c0,0.13-0.05,0.25-0.14,0.34l-3.64,3.64l-0.68,0.68c-0.09,0.09-0.21,0.14-0.34,0.14       s-0.25-0.05-0.34-0.14l-0.68-0.68l-1.82-1.82c-0.09-0.09-0.14-0.21-0.14-0.34s0.05-0.25,0.14-0.34l0.68-0.68       c0.09-0.09,0.21-0.14,0.34-0.14s0.25,0.05,0.34,0.14l1.48,1.48l3.29-3.3c0.09-0.09,0.21-0.14,0.34-0.14s0.25,0.05,0.34,0.14       l0.68,0.68C41.35,25.13,41.39,25.25,41.39,25.38z"/>
    <circle fill="#F4E6DC" stroke="#EADCD3" stroke-miterlimit="10" cx="37.5" cy="37.5" r="37"/>
    <rect x="18.37" y="29.42" fill="#B7B7B7" width="37.66" height="25.01"/>
    <path fill="#998474" d="M47.08,52.05h-5.69v-5.67H33v5.67h-6.52c-7.32,0-13.35,5.48-14.24,12.55c6.6,6.14,15.45,9.9,25.18,9.9       c9.16,0,17.53-3.33,23.99-8.84C61.01,58.08,54.76,52.05,47.08,52.05z"/>
    <path fill="#8E7968" d="M47.08,52.05h-5.69v-5.67h-3.97V74.5c0.03,0,0.06,0,0.09,0c9.12,0,17.46-3.3,23.91-8.77       C61.05,58.12,54.78,52.05,47.08,52.05z"/>
    <circle opacity="0.05" cx="37.19" cy="33.39" r="15.62"/>
    <circle fill="#998474" cx="36.78" cy="32.05" r="15.62"/>
    <path fill="#8E7968" d="M37.19,16.45v31.2c8.43-0.22,15.21-7.11,15.21-15.6S45.63,16.67,37.19,16.45z"/>
    <path opacity="0.1" fill="#56513A" d="M56.71,42.07l-0.23-15.12c-1.23-9.81-9.59-16.07-19.74-16.07c-9.9,0-18.09,6.6-19.62,16.07       l-0.47,15.1c-3.37,0.5-5.95,3.4-5.95,6.9c0,3.86,3.13,6.99,6.99,6.99c3.35,0,6.88-2.35,7.56-5.49l0,0       c0.07-0.42,0.16-0.86,0.16-1.3c0,0-0.04-14.81,0-19.42c1.52,0.54,2.51,0.84,4.22,0.84c6.11,0,11.55-1.66,13.71-7       c1.16,1.45,2.66,2.75,4.69,2.75c0.11,0,0,29.5,0,29.5l8.89,0c3.23-0.62,5.67-3.45,5.67-6.86C62.58,45.48,60.03,42.6,56.71,42.07z"/>
    <path fill="#E3E7E8" d="M56.71,40.82L56.48,25.7c-1.23-9.81-9.59-16.07-19.74-16.07c-9.9,0-18.09,6.6-19.62,16.07l-0.47,15.1       c-3.37,0.5-5.95,3.4-5.95,6.9c0,3.86,3.13,6.99,6.99,6.99c3.35,0,6.3-2.35,6.98-5.49h-0.03c0.07-0.42,0.11-0.86,0.11-1.3       c0,0-0.01-14.81,0.03-19.42c1.52,0.54,3.14,0.84,4.85,0.84c6.11,0,11.34-2.13,13.5-7.47c1.16,1.45,3.28,3.21,5.31,3.21       c0.11,0,0,29.5,0,29.5l8.48,0c3.23-0.62,5.67-3.45,5.67-6.86C62.58,44.23,60.03,41.35,56.71,40.82z"/>
    <path fill="#C1C5C6" d="M21.41,27.98V46.2h-0.03c-0.25,2.66-2.49,4.74-5.22,4.74c-2.83,0-5.13-2.24-5.23-5.04       c-0.16,0.58-0.24,1.19-0.24,1.81c0,3.86,3.13,6.99,6.99,6.99c3.35,0,6.3-2.35,6.98-5.49h-0.03c0.07-0.42,0.11-0.86,0.11-1.3       c0,0-0.01-14.48,0.03-19.25C23.62,28.55,22.49,28.32,21.41,27.98z"/>
    <g>
      <path fill="#C1C5C6" d="M56.71,40.85l-0.23-15.12c-1.03-8.25-7.11-13.97-15.05-15.59c0.19,0.97,0.29,1.96,0.29,2.98         c0,8.63-6.99,15.62-15.62,15.62c-0.23,0-0.46-0.02-0.7-0.04c1.34,0.41,2.75,0.65,4.22,0.65c6.11,0,11.34-2.13,13.5-7.47         c1.16,1.45,3.28,3.21,5.31,3.21c0.11,0,0,29.5,0,29.5l8.48,0c3.23-0.62,5.67-3.45,5.67-6.86C62.58,44.26,60.03,41.38,56.71,40.85         z"/>
    </g>
    <path fill="#63D5DB" d="M47.08,52.05l-9.53,13.16L26.48,52.05c-7.29,0-13.3,5.44-14.23,12.48c6.61,6.18,15.49,9.97,25.25,9.97       c9.12,0,17.46-3.3,23.91-8.77C61.05,58.12,54.78,52.05,47.08,52.05z"/>
    <path fill="#33BDD3" d="M47.08,52.05L37.5,65.21v9.29h0c9.12,0,17.46-3.31,23.91-8.77C61.05,58.12,54.78,52.05,47.08,52.05z"/>
  </svg></g><g data-referencesafe="true" transform="translate(-60266 -20494.953125)"><rect fill="#ff8c00" stroke="#1e1e1e" stroke-width="1px" width="396.375" height="524.328"/><rect fill="#1e1e1e" width="388.375" height="498.328" x="4" y="22"/><g class="demo-collapse-button" transform="translate(379.375 5)"><rect fill="#FFF" width="12" height="12" rx="1" ry="1"/><rect width="8" height="2" x="2" y="5" fill="#ff8c00" stroke-width="0"/></g></g><g transform="translate(-60262 -20490.953125)"><rect fill="rgb(255,140,0)" stroke="rgb(255,140,0)" fill-opacity="1" stroke-opacity="1" stroke-width="1" stroke-linecap="butt" stroke-linejoin="miter" stroke-miterlimit="10" width="374.375" height="31" x="0" y="0"/><text font-family="'Arial'" font-size="27px" font-style="normal" font-weight="bold" text-decoration="none" text-anchor="middle" fill="rgb(255,255,255)" fill-opacity="1" transform="translate(187.1875 0)"><tspan dy="0.9074074074074074em" x="0">Edge</tspan></text></g><g><path fill="none" stroke="rgb(255,140,0)" d="M -60046.88056290594,-20049.5 L -60015.94680804712,-20020.167970130446" stroke-opacity="1" stroke-width="2" stroke-linecap="butt" stroke-linejoin="miter" stroke-miterlimit="10"/><use xlink:href="#ygc709_0" transform="matrix(-0.544232849544806 -0.516052909570657 0.516052909570657 -0.544232849544806 -60013.61047453785 -20017.9526100944)" style="pointer-events: none;"/></g><g><path fill="none" stroke="rgb(255,140,0)" d="M -60068.5,-20090.5 L -60068.5,-20189.5 Q -60068.5,-20190 -60069,-20190 L -60159,-20190" stroke-opacity="1" stroke-width="2" stroke-linecap="butt" stroke-linejoin="miter" stroke-miterlimit="10"/><use xlink:href="#ygc709_1" transform="translate(-60163.292893218815 -20190)" style="pointer-events: none;"/></g><g><path fill="none" stroke="rgb(255,140,0)" d="M -60165,-20219.8828125 L -60090,-20269.6875 L -60161.35562071441,-20329.33633919095" stroke-opacity="1" stroke-width="2" stroke-linecap="butt" stroke-linejoin="miter" stroke-miterlimit="10"/><use xlink:href="#ygc709_2" transform="matrix(0.5754283082513152 0.4810221014288526 -0.4810221014288526 0.5754283082513152 -60163.82587299681 -20331.401315708277)" style="pointer-events: none;"/></g><rect fill="rgb(253,223,152)" stroke="rgb(245,245,245)" stroke-opacity="1" stroke-width="1" stroke-linecap="butt" stroke-linejoin="miter" stroke-miterlimit="10" fill-opacity="1" width="377" height="41" x="-60257" y="-20090.5"/><g transform="translate(-60088 -20079)"><text font-family="'Arial'" font-size="16px" font-style="normal" font-weight="normal" text-decoration="none" text-anchor="middle" fill="rgb(0,0,0)" fill-opacity="1" dy="0.875em" transform="translate(19.5 0.625)">Store</text></g><rect fill="rgb(253,223,152)" stroke="rgb(245,245,245)" stroke-opacity="1" stroke-width="1" stroke-linecap="butt" stroke-linejoin="miter" stroke-miterlimit="10" fill-opacity="1" width="90" height="344.5" x="-59970" y="-20452.2"/><g transform="translate(-59957 -20289)"><text font-family="'Arial'" font-size="16px" font-style="normal" font-weight="normal" text-decoration="none" text-anchor="middle" fill="rgb(0,0,0)" fill-opacity="1" dy="0.875em" transform="translate(32 0.625)">Gateway</text></g><rect fill="rgb(253,223,152)" stroke="rgb(245,245,245)" stroke-opacity="1" stroke-width="1" stroke-linecap="butt" stroke-linejoin="miter" stroke-miterlimit="10" fill-opacity="1" width="90" height="166.625" x="-60255" y="-20453.3"/><g transform="translate(-60235.5 -20379)"><text font-family="'Arial'" font-size="16px" font-style="normal" font-weight="normal" text-decoration="none" text-anchor="middle" fill="rgb(0,0,0)" fill-opacity="1" dy="0.875em" transform="translate(25.5 0.625)">Cluster</text></g><rect fill="rgb(253,223,152)" stroke="rgb(245,245,245)" stroke-opacity="1" stroke-width="1" stroke-linecap="butt" stroke-linejoin="miter" stroke-miterlimit="10" fill-opacity="1" width="90" height="166.625" x="-60255" y="-20273.3"/><g transform="translate(-60234.5 -20199)"><text font-family="'Arial'" font-size="16px" font-style="normal" font-weight="normal" text-decoration="none" text-anchor="middle" fill="rgb(0,0,0)" fill-opacity="1" dy="0.875em" transform="translate(24.5 0.625)">Tunnel</text></g><g><path d="M -60012.5,-20028.225 C -60009.95,-20040.375 -59930.05,-20040.375 -59927.5,-20028.225 L -59927.5,-19991.775 C -59930.05,-19979.625 -60009.95,-19979.625 -60012.5,-19991.775 Z" stroke="rgb(253,223,152)" stroke-opacity="1" stroke-width="1" stroke-linecap="butt" stroke-linejoin="miter" stroke-miterlimit="10" fill="rgb(253,223,152)" fill-opacity="1"/><path d="M -59927.5,-20028.225 C -59930.05,-20016.075 -60009.95,-20016.075 -60012.5,-20028.225" stroke="rgb(253,223,152)" stroke-opacity="1" stroke-width="1" stroke-linecap="butt" stroke-linejoin="miter" stroke-miterlimit="10" fill="rgb(253,223,152)" fill-opacity="1"/></g><g transform="translate(-60012.5 -20040.375)"><rect fill="rgb(255,255,255)" stroke="rgb(255,255,255)" fill-opacity="0.00784313725490196" stroke-opacity="0.00784313725490196" stroke-width="1" stroke-linecap="butt" stroke-linejoin="miter" stroke-miterlimit="10" width="85" height="60.75" x="0" y="0"/><text font-family="'Arial'" font-size="12px" font-style="normal" font-weight="normal" text-decoration="none" text-anchor="middle" fill="rgb(0,0,0)" fill-opacity="1" dy="0.9166666666666666em" transform="translate(42.5 23.375)">LocalDB</text></g><g transform="translate(-61350 -20171.25)"><path fill="rgb(176,190,197)" fill-opacity="1" stroke="rgb(0,0,0)" stroke-opacity="1" stroke-width="1" stroke-linecap="butt" stroke-linejoin="miter" stroke-miterlimit="10" d="M 0 0 L 0 491.25 L 1035 491.25 L 1035 15 L 1020 0 Z"/><path fill="rgb(255,255,255)" fill-opacity="1" stroke="rgb(0,0,0)" stroke-opacity="1" stroke-width="1" stroke-linecap="butt" stroke-linejoin="miter" stroke-miterlimit="0" d="M 1020 0 L 1020 15 L 1035 15 Z"/></g><g transform="translate(-61303.5 -20098.125)"><rect fill="rgb(255,255,255)" stroke="rgb(255,255,255)" fill-opacity="0.027450980392156862" stroke-opacity="0.027450980392156862" stroke-width="1" stroke-linecap="butt" stroke-linejoin="miter" stroke-miterlimit="10" width="942" height="345" x="0" y="0"/><text font-family="'Arial'" font-size="40px" font-style="normal" font-weight="normal" text-decoration="none" text-anchor="start" fill="rgb(0,0,0)" fill-opacity="1" transform="translate(0 0.5)"><tspan dy="0.9em" x="0">Tunnel connects Edge nodes to each other based on</tspan><tspan dy="1.5em" x="0">retrieved information from Cluster.</tspan><tspan dy="1.5em" x="0">Tunnel provides end-to-end communication between </tspan><tspan dy="1.5em" x="0">Edge nodes, hence there is no need for external</tspan><tspan dy="1.5em" x="0">service. However, Edge server must be able to see</tspan><tspan dy="1.5em" x="0">each other through their Tunnel interface.</tspan></text></g><g transform="translate(-61496.25 -20627.8125)"><path fill="rgb(176,190,197)" fill-opacity="1" stroke="rgb(0,0,0)" stroke-opacity="1" stroke-width="1" stroke-linecap="butt" stroke-linejoin="miter" stroke-miterlimit="10" d="M 0 0 L 0 395.625 L 892.5 395.625 L 892.5 15 L 877.5 0 Z"/><path fill="rgb(255,255,255)" fill-opacity="1" stroke="rgb(0,0,0)" stroke-opacity="1" stroke-width="1" stroke-linecap="butt" stroke-linejoin="miter" stroke-miterlimit="0" d="M 877.5 0 L 877.5 15 L 892.5 15 Z"/></g><g transform="translate(-61425 -20542.5)"><rect fill="rgb(255,255,255)" stroke="rgb(255,255,255)" fill-opacity="0.027450980392156862" stroke-opacity="0.027450980392156862" stroke-width="1" stroke-linecap="butt" stroke-linejoin="miter" stroke-miterlimit="10" width="750" height="225" x="0" y="0"/><text font-family="'Arial'" font-size="40px" font-style="normal" font-weight="normal" text-decoration="none" text-anchor="start" fill="rgb(0,0,0)" fill-opacity="1" transform="translate(0 0.5)"><tspan dy="0.9em" x="0">Cluster announces the status of the </tspan><tspan dy="1.5em" x="0">Edge node and provides information</tspan><tspan dy="1.5em" x="0">about other Edge nodes.</tspan><tspan dy="1.5em" x="0">Currently only GossipCluster is supported.</tspan></text></g><g transform="translate(-61380 -21180)"><path fill="rgb(176,190,197)" fill-opacity="1" stroke="rgb(0,0,0)" stroke-opacity="1" stroke-width="1" stroke-linecap="butt" stroke-linejoin="miter" stroke-miterlimit="10" d="M 0 0 L 0 480 L 1046.25 480 L 1046.25 15 L 1031.25 0 Z"/><path fill="rgb(255,255,255)" fill-opacity="1" stroke="rgb(0,0,0)" stroke-opacity="1" stroke-width="1" stroke-linecap="butt" stroke-linejoin="miter" stroke-miterlimit="0" d="M 1031.25 0 L 1031.25 15 L 1046.25 15 Z"/></g><g transform="translate(-61344.875 -21022.5)"><rect fill="rgb(255,255,255)" stroke="rgb(255,255,255)" fill-opacity="0.027450980392156862" stroke-opacity="0.027450980392156862" stroke-width="1" stroke-linecap="butt" stroke-linejoin="miter" stroke-miterlimit="10" width="976" height="165" x="0" y="0"/><text font-family="'Arial'" font-size="40px" font-style="normal" font-weight="normal" text-decoration="none" text-anchor="start" fill="rgb(0,0,0)" fill-opacity="1" transform="translate(0 0.5)"><tspan dy="0.9em" x="0">Gateway connects the clients to the Edge server.</tspan><tspan dy="1.5em" x="0">Client load balancing based on Request or Session</tspan><tspan dy="1.5em" x="0">is possible. Client must have Rony driver. (Edge Client)</tspan></text></g><g><svg xmlns="http://www.w3.org/2000/svg" version="1.1" id="usericon_female1" x="-59340" y="-21270" width="120" height="120" viewBox="0 0 75 75" xml:space="preserve" preserveAspectRatio="none">
    <path fill="#FFFFFF" d="M41.39,25.38c0,0.13-0.05,0.25-0.14,0.34l-3.64,3.64l-0.68,0.68c-0.09,0.09-0.21,0.14-0.34,0.14       s-0.25-0.05-0.34-0.14l-0.68-0.68l-1.82-1.82c-0.09-0.09-0.14-0.21-0.14-0.34s0.05-0.25,0.14-0.34l0.68-0.68       c0.09-0.09,0.21-0.14,0.34-0.14s0.25,0.05,0.34,0.14l1.48,1.48l3.29-3.3c0.09-0.09,0.21-0.14,0.34-0.14s0.25,0.05,0.34,0.14       l0.68,0.68C41.35,25.13,41.39,25.25,41.39,25.38z"/>
    <circle fill="#F4E6DC" stroke="#EADCD3" stroke-miterlimit="10" cx="37.5" cy="37.5" r="37"/>
    <rect x="18.37" y="29.42" fill="#B7B7B7" width="37.66" height="25.01"/>
    <path fill="#998474" d="M47.08,52.05h-5.69v-5.67H33v5.67h-6.52c-7.32,0-13.35,5.48-14.24,12.55c6.6,6.14,15.45,9.9,25.18,9.9       c9.16,0,17.53-3.33,23.99-8.84C61.01,58.08,54.76,52.05,47.08,52.05z"/>
    <path fill="#8E7968" d="M47.08,52.05h-5.69v-5.67h-3.97V74.5c0.03,0,0.06,0,0.09,0c9.12,0,17.46-3.3,23.91-8.77       C61.05,58.12,54.78,52.05,47.08,52.05z"/>
    <circle opacity="0.05" cx="37.19" cy="33.39" r="15.62"/>
    <circle fill="#998474" cx="36.78" cy="32.05" r="15.62"/>
    <path fill="#8E7968" d="M37.19,16.45v31.2c8.43-0.22,15.21-7.11,15.21-15.6S45.63,16.67,37.19,16.45z"/>
    <path opacity="0.1" fill="#56513A" d="M56.71,42.07l-0.23-15.12c-1.23-9.81-9.59-16.07-19.74-16.07c-9.9,0-18.09,6.6-19.62,16.07       l-0.47,15.1c-3.37,0.5-5.95,3.4-5.95,6.9c0,3.86,3.13,6.99,6.99,6.99c3.35,0,6.88-2.35,7.56-5.49l0,0       c0.07-0.42,0.16-0.86,0.16-1.3c0,0-0.04-14.81,0-19.42c1.52,0.54,2.51,0.84,4.22,0.84c6.11,0,11.55-1.66,13.71-7       c1.16,1.45,2.66,2.75,4.69,2.75c0.11,0,0,29.5,0,29.5l8.89,0c3.23-0.62,5.67-3.45,5.67-6.86C62.58,45.48,60.03,42.6,56.71,42.07z"/>
    <path fill="#E3E7E8" d="M56.71,40.82L56.48,25.7c-1.23-9.81-9.59-16.07-19.74-16.07c-9.9,0-18.09,6.6-19.62,16.07l-0.47,15.1       c-3.37,0.5-5.95,3.4-5.95,6.9c0,3.86,3.13,6.99,6.99,6.99c3.35,0,6.3-2.35,6.98-5.49h-0.03c0.07-0.42,0.11-0.86,0.11-1.3       c0,0-0.01-14.81,0.03-19.42c1.52,0.54,3.14,0.84,4.85,0.84c6.11,0,11.34-2.13,13.5-7.47c1.16,1.45,3.28,3.21,5.31,3.21       c0.11,0,0,29.5,0,29.5l8.48,0c3.23-0.62,5.67-3.45,5.67-6.86C62.58,44.23,60.03,41.35,56.71,40.82z"/>
    <path fill="#C1C5C6" d="M21.41,27.98V46.2h-0.03c-0.25,2.66-2.49,4.74-5.22,4.74c-2.83,0-5.13-2.24-5.23-5.04       c-0.16,0.58-0.24,1.19-0.24,1.81c0,3.86,3.13,6.99,6.99,6.99c3.35,0,6.3-2.35,6.98-5.49h-0.03c0.07-0.42,0.11-0.86,0.11-1.3       c0,0-0.01-14.48,0.03-19.25C23.62,28.55,22.49,28.32,21.41,27.98z"/>
    <g>
      <path fill="#C1C5C6" d="M56.71,40.85l-0.23-15.12c-1.03-8.25-7.11-13.97-15.05-15.59c0.19,0.97,0.29,1.96,0.29,2.98         c0,8.63-6.99,15.62-15.62,15.62c-0.23,0-0.46-0.02-0.7-0.04c1.34,0.41,2.75,0.65,4.22,0.65c6.11,0,11.34-2.13,13.5-7.47         c1.16,1.45,3.28,3.21,5.31,3.21c0.11,0,0,29.5,0,29.5l8.48,0c3.23-0.62,5.67-3.45,5.67-6.86C62.58,44.26,60.03,41.38,56.71,40.85         z"/>
    </g>
    <path fill="#63D5DB" d="M47.08,52.05l-9.53,13.16L26.48,52.05c-7.29,0-13.3,5.44-14.23,12.48c6.61,6.18,15.49,9.97,25.25,9.97       c9.12,0,17.46-3.3,23.91-8.77C61.05,58.12,54.78,52.05,47.08,52.05z"/>
    <path fill="#33BDD3" d="M47.08,52.05L37.5,65.21v9.29h0c9.12,0,17.46-3.31,23.91-8.77C61.05,58.12,54.78,52.05,47.08,52.05z"/>
  </svg></g><g><svg xmlns="http://www.w3.org/2000/svg" version="1.1" id="usericon_female1" x="-59310" y="-21420" width="120" height="120" viewBox="0 0 75 75" xml:space="preserve" preserveAspectRatio="none">
    <path fill="#FFFFFF" d="M41.39,25.38c0,0.13-0.05,0.25-0.14,0.34l-3.64,3.64l-0.68,0.68c-0.09,0.09-0.21,0.14-0.34,0.14       s-0.25-0.05-0.34-0.14l-0.68-0.68l-1.82-1.82c-0.09-0.09-0.14-0.21-0.14-0.34s0.05-0.25,0.14-0.34l0.68-0.68       c0.09-0.09,0.21-0.14,0.34-0.14s0.25,0.05,0.34,0.14l1.48,1.48l3.29-3.3c0.09-0.09,0.21-0.14,0.34-0.14s0.25,0.05,0.34,0.14       l0.68,0.68C41.35,25.13,41.39,25.25,41.39,25.38z"/>
    <circle fill="#F4E6DC" stroke="#EADCD3" stroke-miterlimit="10" cx="37.5" cy="37.5" r="37"/>
    <rect x="18.37" y="29.42" fill="#B7B7B7" width="37.66" height="25.01"/>
    <path fill="#998474" d="M47.08,52.05h-5.69v-5.67H33v5.67h-6.52c-7.32,0-13.35,5.48-14.24,12.55c6.6,6.14,15.45,9.9,25.18,9.9       c9.16,0,17.53-3.33,23.99-8.84C61.01,58.08,54.76,52.05,47.08,52.05z"/>
    <path fill="#8E7968" d="M47.08,52.05h-5.69v-5.67h-3.97V74.5c0.03,0,0.06,0,0.09,0c9.12,0,17.46-3.3,23.91-8.77       C61.05,58.12,54.78,52.05,47.08,52.05z"/>
    <circle opacity="0.05" cx="37.19" cy="33.39" r="15.62"/>
    <circle fill="#998474" cx="36.78" cy="32.05" r="15.62"/>
    <path fill="#8E7968" d="M37.19,16.45v31.2c8.43-0.22,15.21-7.11,15.21-15.6S45.63,16.67,37.19,16.45z"/>
    <path opacity="0.1" fill="#56513A" d="M56.71,42.07l-0.23-15.12c-1.23-9.81-9.59-16.07-19.74-16.07c-9.9,0-18.09,6.6-19.62,16.07       l-0.47,15.1c-3.37,0.5-5.95,3.4-5.95,6.9c0,3.86,3.13,6.99,6.99,6.99c3.35,0,6.88-2.35,7.56-5.49l0,0       c0.07-0.42,0.16-0.86,0.16-1.3c0,0-0.04-14.81,0-19.42c1.52,0.54,2.51,0.84,4.22,0.84c6.11,0,11.55-1.66,13.71-7       c1.16,1.45,2.66,2.75,4.69,2.75c0.11,0,0,29.5,0,29.5l8.89,0c3.23-0.62,5.67-3.45,5.67-6.86C62.58,45.48,60.03,42.6,56.71,42.07z"/>
    <path fill="#E3E7E8" d="M56.71,40.82L56.48,25.7c-1.23-9.81-9.59-16.07-19.74-16.07c-9.9,0-18.09,6.6-19.62,16.07l-0.47,15.1       c-3.37,0.5-5.95,3.4-5.95,6.9c0,3.86,3.13,6.99,6.99,6.99c3.35,0,6.3-2.35,6.98-5.49h-0.03c0.07-0.42,0.11-0.86,0.11-1.3       c0,0-0.01-14.81,0.03-19.42c1.52,0.54,3.14,0.84,4.85,0.84c6.11,0,11.34-2.13,13.5-7.47c1.16,1.45,3.28,3.21,5.31,3.21       c0.11,0,0,29.5,0,29.5l8.48,0c3.23-0.62,5.67-3.45,5.67-6.86C62.58,44.23,60.03,41.35,56.71,40.82z"/>
    <path fill="#C1C5C6" d="M21.41,27.98V46.2h-0.03c-0.25,2.66-2.49,4.74-5.22,4.74c-2.83,0-5.13-2.24-5.23-5.04       c-0.16,0.58-0.24,1.19-0.24,1.81c0,3.86,3.13,6.99,6.99,6.99c3.35,0,6.3-2.35,6.98-5.49h-0.03c0.07-0.42,0.11-0.86,0.11-1.3       c0,0-0.01-14.48,0.03-19.25C23.62,28.55,22.49,28.32,21.41,27.98z"/>
    <g>
      <path fill="#C1C5C6" d="M56.71,40.85l-0.23-15.12c-1.03-8.25-7.11-13.97-15.05-15.59c0.19,0.97,0.29,1.96,0.29,2.98         c0,8.63-6.99,15.62-15.62,15.62c-0.23,0-0.46-0.02-0.7-0.04c1.34,0.41,2.75,0.65,4.22,0.65c6.11,0,11.34-2.13,13.5-7.47         c1.16,1.45,3.28,3.21,5.31,3.21c0.11,0,0,29.5,0,29.5l8.48,0c3.23-0.62,5.67-3.45,5.67-6.86C62.58,44.26,60.03,41.38,56.71,40.85         z"/>
    </g>
    <path fill="#63D5DB" d="M47.08,52.05l-9.53,13.16L26.48,52.05c-7.29,0-13.3,5.44-14.23,12.48c6.61,6.18,15.49,9.97,25.25,9.97       c9.12,0,17.46-3.3,23.91-8.77C61.05,58.12,54.78,52.05,47.08,52.05z"/>
    <path fill="#33BDD3" d="M47.08,52.05L37.5,65.21v9.29h0c9.12,0,17.46-3.31,23.91-8.77C61.05,58.12,54.78,52.05,47.08,52.05z"/>
  </svg></g><g><svg xmlns="http://www.w3.org/2000/svg" version="1.1" id="usericon_female1" x="-59190" y="-21150" width="120" height="120" viewBox="0 0 75 75" xml:space="preserve" preserveAspectRatio="none">
    <path fill="#FFFFFF" d="M41.39,25.38c0,0.13-0.05,0.25-0.14,0.34l-3.64,3.64l-0.68,0.68c-0.09,0.09-0.21,0.14-0.34,0.14       s-0.25-0.05-0.34-0.14l-0.68-0.68l-1.82-1.82c-0.09-0.09-0.14-0.21-0.14-0.34s0.05-0.25,0.14-0.34l0.68-0.68       c0.09-0.09,0.21-0.14,0.34-0.14s0.25,0.05,0.34,0.14l1.48,1.48l3.29-3.3c0.09-0.09,0.21-0.14,0.34-0.14s0.25,0.05,0.34,0.14       l0.68,0.68C41.35,25.13,41.39,25.25,41.39,25.38z"/>
    <circle fill="#F4E6DC" stroke="#EADCD3" stroke-miterlimit="10" cx="37.5" cy="37.5" r="37"/>
    <rect x="18.37" y="29.42" fill="#B7B7B7" width="37.66" height="25.01"/>
    <path fill="#998474" d="M47.08,52.05h-5.69v-5.67H33v5.67h-6.52c-7.32,0-13.35,5.48-14.24,12.55c6.6,6.14,15.45,9.9,25.18,9.9       c9.16,0,17.53-3.33,23.99-8.84C61.01,58.08,54.76,52.05,47.08,52.05z"/>
    <path fill="#8E7968" d="M47.08,52.05h-5.69v-5.67h-3.97V74.5c0.03,0,0.06,0,0.09,0c9.12,0,17.46-3.3,23.91-8.77       C61.05,58.12,54.78,52.05,47.08,52.05z"/>
    <circle opacity="0.05" cx="37.19" cy="33.39" r="15.62"/>
    <circle fill="#998474" cx="36.78" cy="32.05" r="15.62"/>
    <path fill="#8E7968" d="M37.19,16.45v31.2c8.43-0.22,15.21-7.11,15.21-15.6S45.63,16.67,37.19,16.45z"/>
    <path opacity="0.1" fill="#56513A" d="M56.71,42.07l-0.23-15.12c-1.23-9.81-9.59-16.07-19.74-16.07c-9.9,0-18.09,6.6-19.62,16.07       l-0.47,15.1c-3.37,0.5-5.95,3.4-5.95,6.9c0,3.86,3.13,6.99,6.99,6.99c3.35,0,6.88-2.35,7.56-5.49l0,0       c0.07-0.42,0.16-0.86,0.16-1.3c0,0-0.04-14.81,0-19.42c1.52,0.54,2.51,0.84,4.22,0.84c6.11,0,11.55-1.66,13.71-7       c1.16,1.45,2.66,2.75,4.69,2.75c0.11,0,0,29.5,0,29.5l8.89,0c3.23-0.62,5.67-3.45,5.67-6.86C62.58,45.48,60.03,42.6,56.71,42.07z"/>
    <path fill="#E3E7E8" d="M56.71,40.82L56.48,25.7c-1.23-9.81-9.59-16.07-19.74-16.07c-9.9,0-18.09,6.6-19.62,16.07l-0.47,15.1       c-3.37,0.5-5.95,3.4-5.95,6.9c0,3.86,3.13,6.99,6.99,6.99c3.35,0,6.3-2.35,6.98-5.49h-0.03c0.07-0.42,0.11-0.86,0.11-1.3       c0,0-0.01-14.81,0.03-19.42c1.52,0.54,3.14,0.84,4.85,0.84c6.11,0,11.34-2.13,13.5-7.47c1.16,1.45,3.28,3.21,5.31,3.21       c0.11,0,0,29.5,0,29.5l8.48,0c3.23-0.62,5.67-3.45,5.67-6.86C62.58,44.23,60.03,41.35,56.71,40.82z"/>
    <path fill="#C1C5C6" d="M21.41,27.98V46.2h-0.03c-0.25,2.66-2.49,4.74-5.22,4.74c-2.83,0-5.13-2.24-5.23-5.04       c-0.16,0.58-0.24,1.19-0.24,1.81c0,3.86,3.13,6.99,6.99,6.99c3.35,0,6.3-2.35,6.98-5.49h-0.03c0.07-0.42,0.11-0.86,0.11-1.3       c0,0-0.01-14.48,0.03-19.25C23.62,28.55,22.49,28.32,21.41,27.98z"/>
    <g>
      <path fill="#C1C5C6" d="M56.71,40.85l-0.23-15.12c-1.03-8.25-7.11-13.97-15.05-15.59c0.19,0.97,0.29,1.96,0.29,2.98         c0,8.63-6.99,15.62-15.62,15.62c-0.23,0-0.46-0.02-0.7-0.04c1.34,0.41,2.75,0.65,4.22,0.65c6.11,0,11.34-2.13,13.5-7.47         c1.16,1.45,3.28,3.21,5.31,3.21c0.11,0,0,29.5,0,29.5l8.48,0c3.23-0.62,5.67-3.45,5.67-6.86C62.58,44.26,60.03,41.38,56.71,40.85         z"/>
    </g>
    <path fill="#63D5DB" d="M47.08,52.05l-9.53,13.16L26.48,52.05c-7.29,0-13.3,5.44-14.23,12.48c6.61,6.18,15.49,9.97,25.25,9.97       c9.12,0,17.46-3.3,23.91-8.77C61.05,58.12,54.78,52.05,47.08,52.05z"/>
    <path fill="#33BDD3" d="M47.08,52.05L37.5,65.21v9.29h0c9.12,0,17.46-3.31,23.91-8.77C61.05,58.12,54.78,52.05,47.08,52.05z"/>
  </svg></g><g><svg xmlns="http://www.w3.org/2000/svg" version="1.1" id="usericon_female1" x="-59190" y="-21000" width="120" height="120" viewBox="0 0 75 75" xml:space="preserve" preserveAspectRatio="none">
    <path fill="#FFFFFF" d="M41.39,25.38c0,0.13-0.05,0.25-0.14,0.34l-3.64,3.64l-0.68,0.68c-0.09,0.09-0.21,0.14-0.34,0.14       s-0.25-0.05-0.34-0.14l-0.68-0.68l-1.82-1.82c-0.09-0.09-0.14-0.21-0.14-0.34s0.05-0.25,0.14-0.34l0.68-0.68       c0.09-0.09,0.21-0.14,0.34-0.14s0.25,0.05,0.34,0.14l1.48,1.48l3.29-3.3c0.09-0.09,0.21-0.14,0.34-0.14s0.25,0.05,0.34,0.14       l0.68,0.68C41.35,25.13,41.39,25.25,41.39,25.38z"/>
    <circle fill="#F4E6DC" stroke="#EADCD3" stroke-miterlimit="10" cx="37.5" cy="37.5" r="37"/>
    <rect x="18.37" y="29.42" fill="#B7B7B7" width="37.66" height="25.01"/>
    <path fill="#998474" d="M47.08,52.05h-5.69v-5.67H33v5.67h-6.52c-7.32,0-13.35,5.48-14.24,12.55c6.6,6.14,15.45,9.9,25.18,9.9       c9.16,0,17.53-3.33,23.99-8.84C61.01,58.08,54.76,52.05,47.08,52.05z"/>
    <path fill="#8E7968" d="M47.08,52.05h-5.69v-5.67h-3.97V74.5c0.03,0,0.06,0,0.09,0c9.12,0,17.46-3.3,23.91-8.77       C61.05,58.12,54.78,52.05,47.08,52.05z"/>
    <circle opacity="0.05" cx="37.19" cy="33.39" r="15.62"/>
    <circle fill="#998474" cx="36.78" cy="32.05" r="15.62"/>
    <path fill="#8E7968" d="M37.19,16.45v31.2c8.43-0.22,15.21-7.11,15.21-15.6S45.63,16.67,37.19,16.45z"/>
    <path opacity="0.1" fill="#56513A" d="M56.71,42.07l-0.23-15.12c-1.23-9.81-9.59-16.07-19.74-16.07c-9.9,0-18.09,6.6-19.62,16.07       l-0.47,15.1c-3.37,0.5-5.95,3.4-5.95,6.9c0,3.86,3.13,6.99,6.99,6.99c3.35,0,6.88-2.35,7.56-5.49l0,0       c0.07-0.42,0.16-0.86,0.16-1.3c0,0-0.04-14.81,0-19.42c1.52,0.54,2.51,0.84,4.22,0.84c6.11,0,11.55-1.66,13.71-7       c1.16,1.45,2.66,2.75,4.69,2.75c0.11,0,0,29.5,0,29.5l8.89,0c3.23-0.62,5.67-3.45,5.67-6.86C62.58,45.48,60.03,42.6,56.71,42.07z"/>
    <path fill="#E3E7E8" d="M56.71,40.82L56.48,25.7c-1.23-9.81-9.59-16.07-19.74-16.07c-9.9,0-18.09,6.6-19.62,16.07l-0.47,15.1       c-3.37,0.5-5.95,3.4-5.95,6.9c0,3.86,3.13,6.99,6.99,6.99c3.35,0,6.3-2.35,6.98-5.49h-0.03c0.07-0.42,0.11-0.86,0.11-1.3       c0,0-0.01-14.81,0.03-19.42c1.52,0.54,3.14,0.84,4.85,0.84c6.11,0,11.34-2.13,13.5-7.47c1.16,1.45,3.28,3.21,5.31,3.21       c0.11,0,0,29.5,0,29.5l8.48,0c3.23-0.62,5.67-3.45,5.67-6.86C62.58,44.23,60.03,41.35,56.71,40.82z"/>
    <path fill="#C1C5C6" d="M21.41,27.98V46.2h-0.03c-0.25,2.66-2.49,4.74-5.22,4.74c-2.83,0-5.13-2.24-5.23-5.04       c-0.16,0.58-0.24,1.19-0.24,1.81c0,3.86,3.13,6.99,6.99,6.99c3.35,0,6.3-2.35,6.98-5.49h-0.03c0.07-0.42,0.11-0.86,0.11-1.3       c0,0-0.01-14.48,0.03-19.25C23.62,28.55,22.49,28.32,21.41,27.98z"/>
    <g>
      <path fill="#C1C5C6" d="M56.71,40.85l-0.23-15.12c-1.03-8.25-7.11-13.97-15.05-15.59c0.19,0.97,0.29,1.96,0.29,2.98         c0,8.63-6.99,15.62-15.62,15.62c-0.23,0-0.46-0.02-0.7-0.04c1.34,0.41,2.75,0.65,4.22,0.65c6.11,0,11.34-2.13,13.5-7.47         c1.16,1.45,3.28,3.21,5.31,3.21c0.11,0,0,29.5,0,29.5l8.48,0c3.23-0.62,5.67-3.45,5.67-6.86C62.58,44.26,60.03,41.38,56.71,40.85         z"/>
    </g>
    <path fill="#63D5DB" d="M47.08,52.05l-9.53,13.16L26.48,52.05c-7.29,0-13.3,5.44-14.23,12.48c6.61,6.18,15.49,9.97,25.25,9.97       c9.12,0,17.46-3.3,23.91-8.77C61.05,58.12,54.78,52.05,47.08,52.05z"/>
    <path fill="#33BDD3" d="M47.08,52.05L37.5,65.21v9.29h0c9.12,0,17.46-3.31,23.91-8.77C61.05,58.12,54.78,52.05,47.08,52.05z"/>
  </svg></g><g><svg xmlns="http://www.w3.org/2000/svg" version="1.1" id="usericon_female1" x="-59340" y="-20940" width="120" height="120" viewBox="0 0 75 75" xml:space="preserve" preserveAspectRatio="none">
    <path fill="#FFFFFF" d="M41.39,25.38c0,0.13-0.05,0.25-0.14,0.34l-3.64,3.64l-0.68,0.68c-0.09,0.09-0.21,0.14-0.34,0.14       s-0.25-0.05-0.34-0.14l-0.68-0.68l-1.82-1.82c-0.09-0.09-0.14-0.21-0.14-0.34s0.05-0.25,0.14-0.34l0.68-0.68       c0.09-0.09,0.21-0.14,0.34-0.14s0.25,0.05,0.34,0.14l1.48,1.48l3.29-3.3c0.09-0.09,0.21-0.14,0.34-0.14s0.25,0.05,0.34,0.14       l0.68,0.68C41.35,25.13,41.39,25.25,41.39,25.38z"/>
    <circle fill="#F4E6DC" stroke="#EADCD3" stroke-miterlimit="10" cx="37.5" cy="37.5" r="37"/>
    <rect x="18.37" y="29.42" fill="#B7B7B7" width="37.66" height="25.01"/>
    <path fill="#998474" d="M47.08,52.05h-5.69v-5.67H33v5.67h-6.52c-7.32,0-13.35,5.48-14.24,12.55c6.6,6.14,15.45,9.9,25.18,9.9       c9.16,0,17.53-3.33,23.99-8.84C61.01,58.08,54.76,52.05,47.08,52.05z"/>
    <path fill="#8E7968" d="M47.08,52.05h-5.69v-5.67h-3.97V74.5c0.03,0,0.06,0,0.09,0c9.12,0,17.46-3.3,23.91-8.77       C61.05,58.12,54.78,52.05,47.08,52.05z"/>
    <circle opacity="0.05" cx="37.19" cy="33.39" r="15.62"/>
    <circle fill="#998474" cx="36.78" cy="32.05" r="15.62"/>
    <path fill="#8E7968" d="M37.19,16.45v31.2c8.43-0.22,15.21-7.11,15.21-15.6S45.63,16.67,37.19,16.45z"/>
    <path opacity="0.1" fill="#56513A" d="M56.71,42.07l-0.23-15.12c-1.23-9.81-9.59-16.07-19.74-16.07c-9.9,0-18.09,6.6-19.62,16.07       l-0.47,15.1c-3.37,0.5-5.95,3.4-5.95,6.9c0,3.86,3.13,6.99,6.99,6.99c3.35,0,6.88-2.35,7.56-5.49l0,0       c0.07-0.42,0.16-0.86,0.16-1.3c0,0-0.04-14.81,0-19.42c1.52,0.54,2.51,0.84,4.22,0.84c6.11,0,11.55-1.66,13.71-7       c1.16,1.45,2.66,2.75,4.69,2.75c0.11,0,0,29.5,0,29.5l8.89,0c3.23-0.62,5.67-3.45,5.67-6.86C62.58,45.48,60.03,42.6,56.71,42.07z"/>
    <path fill="#E3E7E8" d="M56.71,40.82L56.48,25.7c-1.23-9.81-9.59-16.07-19.74-16.07c-9.9,0-18.09,6.6-19.62,16.07l-0.47,15.1       c-3.37,0.5-5.95,3.4-5.95,6.9c0,3.86,3.13,6.99,6.99,6.99c3.35,0,6.3-2.35,6.98-5.49h-0.03c0.07-0.42,0.11-0.86,0.11-1.3       c0,0-0.01-14.81,0.03-19.42c1.52,0.54,3.14,0.84,4.85,0.84c6.11,0,11.34-2.13,13.5-7.47c1.16,1.45,3.28,3.21,5.31,3.21       c0.11,0,0,29.5,0,29.5l8.48,0c3.23-0.62,5.67-3.45,5.67-6.86C62.58,44.23,60.03,41.35,56.71,40.82z"/>
    <path fill="#C1C5C6" d="M21.41,27.98V46.2h-0.03c-0.25,2.66-2.49,4.74-5.22,4.74c-2.83,0-5.13-2.24-5.23-5.04       c-0.16,0.58-0.24,1.19-0.24,1.81c0,3.86,3.13,6.99,6.99,6.99c3.35,0,6.3-2.35,6.98-5.49h-0.03c0.07-0.42,0.11-0.86,0.11-1.3       c0,0-0.01-14.48,0.03-19.25C23.62,28.55,22.49,28.32,21.41,27.98z"/>
    <g>
      <path fill="#C1C5C6" d="M56.71,40.85l-0.23-15.12c-1.03-8.25-7.11-13.97-15.05-15.59c0.19,0.97,0.29,1.96,0.29,2.98         c0,8.63-6.99,15.62-15.62,15.62c-0.23,0-0.46-0.02-0.7-0.04c1.34,0.41,2.75,0.65,4.22,0.65c6.11,0,11.34-2.13,13.5-7.47         c1.16,1.45,3.28,3.21,5.31,3.21c0.11,0,0,29.5,0,29.5l8.48,0c3.23-0.62,5.67-3.45,5.67-6.86C62.58,44.26,60.03,41.38,56.71,40.85         z"/>
    </g>
    <path fill="#63D5DB" d="M47.08,52.05l-9.53,13.16L26.48,52.05c-7.29,0-13.3,5.44-14.23,12.48c6.61,6.18,15.49,9.97,25.25,9.97       c9.12,0,17.46-3.3,23.91-8.77C61.05,58.12,54.78,52.05,47.08,52.05z"/>
    <path fill="#33BDD3" d="M47.08,52.05L37.5,65.21v9.29h0c9.12,0,17.46-3.31,23.91-8.77C61.05,58.12,54.78,52.05,47.08,52.05z"/>
  </svg></g><g data-referencesafe="true" transform="translate(-60138.1875 -21217.5234375)"><rect fill="#ff8c00" stroke="#1e1e1e" stroke-width="1px" width="395" height="509.688"/><rect fill="#1e1e1e" width="387" height="483.688" x="4" y="22"/><g class="demo-collapse-button" transform="translate(378 5)"><rect fill="#FFF" width="12" height="12" rx="1" ry="1"/><rect width="8" height="2" x="2" y="5" fill="#ff8c00" stroke-width="0"/></g></g><g><path fill="none" stroke="rgb(255,140,0)" d="M -59884.6875,-20754.110572536498 L -59915.62125485882,-20783.442602406052" stroke-opacity="1" stroke-width="2" stroke-linecap="butt" stroke-linejoin="miter" stroke-miterlimit="10"/><use xlink:href="#ygc709_3" transform="matrix(0.544232849544806 0.516052909570657 -0.516052909570657 0.544232849544806 -59917.957588368095 -20785.6579624421)" style="pointer-events: none;"/></g><g><path fill="none" stroke="rgb(255,140,0)" d="M -60037.1875,-20927.2109375 L -59941.1875,-20927.2109375 Q -59940.6875,-20927.2109375 -59940.6875,-20926.7109375 L -59940.6875,-20833.7109375" stroke-opacity="1" stroke-width="2" stroke-linecap="butt" stroke-linejoin="miter" stroke-miterlimit="10"/><use xlink:href="#ygc709_4" transform="matrix(0 -1 1 0 -59940.6875 -20829.418044281185)" style="pointer-events: none;"/></g><g><path fill="none" stroke="rgb(255,140,0)" d="M -60037.1875,-21069.59375 L -59962.1875,-21006.8984375 L -60033.230511544774,-20959.72143764605" stroke-opacity="1" stroke-width="2" stroke-linecap="butt" stroke-linejoin="miter" stroke-miterlimit="10"/><use xlink:href="#ygc709_5" transform="matrix(0.6247876508253358 -0.414898049376179 0.414898049376179 0.6247876508253358 -60035.9126582142 -20957.940324623385)" style="pointer-events: none;"/></g><rect fill="rgb(253,223,152)" stroke="rgb(245,245,245)" stroke-opacity="1" stroke-width="1" stroke-linecap="butt" stroke-linejoin="miter" stroke-miterlimit="10" fill-opacity="1" width="377" height="41" x="-60129.2" y="-20827.7"/><g transform="translate(-59960.1875 -20816.2109375)"><text font-family="'Arial'" font-size="16px" font-style="normal" font-weight="normal" text-decoration="none" text-anchor="middle" fill="rgb(0,0,0)" fill-opacity="1" dy="0.875em" transform="translate(19.5 0.625)">Store</text></g><rect fill="rgb(253,223,152)" stroke="rgb(245,245,245)" stroke-opacity="1" stroke-width="1" stroke-linecap="butt" stroke-linejoin="miter" stroke-miterlimit="10" fill-opacity="1" width="90" height="344.5" x="-59842.2" y="-21189.5"/><g transform="translate(-59829.1875 -21026.2109375)"><text font-family="'Arial'" font-size="16px" font-style="normal" font-weight="normal" text-decoration="none" text-anchor="middle" fill="rgb(0,0,0)" fill-opacity="1" dy="0.875em" transform="translate(32 0.625)">Gateway</text></g><rect fill="rgb(253,223,152)" stroke="rgb(245,245,245)" stroke-opacity="1" stroke-width="1" stroke-linecap="butt" stroke-linejoin="miter" stroke-miterlimit="10" fill-opacity="1" width="90" height="166.625" x="-60127.2" y="-21190.5"/><g transform="translate(-60107.6875 -21116.2109375)"><text font-family="'Arial'" font-size="16px" font-style="normal" font-weight="normal" text-decoration="none" text-anchor="middle" fill="rgb(0,0,0)" fill-opacity="1" dy="0.875em" transform="translate(25.5 0.625)">Cluster</text></g><rect fill="rgb(253,223,152)" stroke="rgb(245,245,245)" stroke-opacity="1" stroke-width="1" stroke-linecap="butt" stroke-linejoin="miter" stroke-miterlimit="10" fill-opacity="1" width="90" height="166.625" x="-60127.2" y="-21010.5"/><g transform="translate(-60106.6875 -20936.2109375)"><text font-family="'Arial'" font-size="16px" font-style="normal" font-weight="normal" text-decoration="none" text-anchor="middle" fill="rgb(0,0,0)" fill-opacity="1" dy="0.875em" transform="translate(24.5 0.625)">Tunnel</text></g><g><path d="M -59884.6875,-20765.4359375 C -59882.1375,-20777.5859375 -59802.2375,-20777.5859375 -59799.6875,-20765.4359375 L -59799.6875,-20728.9859375 C -59802.2375,-20716.8359375 -59882.1375,-20716.8359375 -59884.6875,-20728.9859375 Z" stroke="rgb(253,223,152)" stroke-opacity="1" stroke-width="1" stroke-linecap="butt" stroke-linejoin="miter" stroke-miterlimit="10" fill="rgb(253,223,152)" fill-opacity="1"/><path d="M -59799.6875,-20765.4359375 C -59802.2375,-20753.2859375 -59882.1375,-20753.2859375 -59884.6875,-20765.4359375" stroke="rgb(253,223,152)" stroke-opacity="1" stroke-width="1" stroke-linecap="butt" stroke-linejoin="miter" stroke-miterlimit="10" fill="rgb(253,223,152)" fill-opacity="1"/></g><g transform="translate(-59884.6875 -20777.5859375)"><rect fill="rgb(255,255,255)" stroke="rgb(255,255,255)" fill-opacity="0.00784313725490196" stroke-opacity="0.00784313725490196" stroke-width="1" stroke-linecap="butt" stroke-linejoin="miter" stroke-miterlimit="10" width="85" height="60.75" x="0" y="0"/><text font-family="'Arial'" font-size="12px" font-style="normal" font-weight="normal" text-decoration="none" text-anchor="middle" fill="rgb(0,0,0)" fill-opacity="1" dy="0.9166666666666666em" transform="translate(42.5 23.375)">LocalDB</text></g><g><path d="M -61693.125,-20342.1 C -62017.5,-21022.5 -61693.125,-21630 -61161.15,-21192.6 C -61161.15,-21630 -60278.85,-21630 -60278.85,-21192.6 C -59746.875,-21630 -59422.5,-21022.5 -59746.875,-20487.9 C -59422.5,-19807.5 -59746.875,-19200 -60149.1,-19637.4 C -60278.85,-19200 -61161.15,-19200 -61031.4,-19637.4 C -61693.125,-19200 -62017.5,-19807.5 -61693.125,-20342.1 Z" stroke="rgb(255,140,0)" stroke-opacity="1" stroke-width="7" stroke-linecap="butt" stroke-linejoin="miter" stroke-miterlimit="10" fill="rgb(255,255,255)" fill-opacity="0"/></g><g transform="translate(-62017.5 -21630)"><text font-family="'Arial'" font-size="68px" font-style="normal" font-weight="bold" text-decoration="none" text-anchor="middle" fill="rgb(255,140,0)" fill-opacity="1" dy="0.9044117647058824em" transform="translate(1297.5 0)">Rony Cloud</text></g><g><path fill="none" stroke="rgb(253,223,152)" d="M -59392.1159926871,-20008.900972435942 L -59875.845982515435,-20277.153890243633" stroke-opacity="1" stroke-width="2" stroke-linecap="butt" stroke-linejoin="miter" stroke-miterlimit="10"/><use xlink:href="#ygc709_6" transform="matrix(0.655897497562832 0.3637285700777638 -0.3637285700777638 0.655897497562832 -59878.66168043496 -20278.71533815561)" style="pointer-events: none;"/></g><g><path fill="none" stroke="rgb(253,223,152)" d="M -59246.17947922851,-20059.51302345819 L -59875.512955040474,-20278.101715389213" stroke-opacity="1" stroke-width="2" stroke-linecap="butt" stroke-linejoin="miter" stroke-miterlimit="10"/><use xlink:href="#ygc709_7" transform="matrix(0.7084807830834841 0.24607921489108592 -0.24607921489108592 0.7084807830834841 -59878.554387389835 -20279.15810718211)" style="pointer-events: none;"/></g><g><path fill="none" stroke="rgb(253,223,152)" d="M -59249.31384917073,-20197.72563585182 L -59875.28978656898,-20279.259075551217" stroke-opacity="1" stroke-width="2" stroke-linecap="butt" stroke-linejoin="miter" stroke-miterlimit="10"/><use xlink:href="#ygc709_8" transform="matrix(0.7437179101608768 0.09686934554304558 -0.09686934554304558 0.7437179101608768 -59878.48248814222 -20279.674925307812)" style="pointer-events: none;"/></g><g><path fill="none" stroke="rgb(253,223,152)" d="M -59366.91740064005,-20442.05687883876 L -59875.46977906105,-20281.736540238893" stroke-opacity="1" stroke-width="2" stroke-linecap="butt" stroke-linejoin="miter" stroke-miterlimit="10"/><use xlink:href="#ygc709_9" transform="matrix(0.7152980429923684 -0.2254965846554841 0.2254965846554841 0.7152980429923684 -59878.540477179245 -20280.76850747976)" style="pointer-events: none;"/></g><g><path fill="none" stroke="rgb(253,223,152)" d="M -59399.71769527916,-20306.688349629396 L -59875.25728695734,-20280.31725714282" stroke-opacity="1" stroke-width="2" stroke-linecap="butt" stroke-linejoin="miter" stroke-miterlimit="10"/><use xlink:href="#ygc709_10" transform="matrix(0.7488494277885794 -0.04152751498364735 0.04152751498364735 0.7488494277885794 -59878.47201758781 -20280.138983955352)" style="pointer-events: none;"/></g><g><path fill="none" stroke="rgb(255,140,0)" d="M -59970,-20370 L -60060,-20550 L -60832.719342796016,-20699.10006368295" stroke-opacity="1" stroke-width="2" stroke-linecap="butt" stroke-linejoin="miter" stroke-miterlimit="10"/><use xlink:href="#ygc709_11" transform="matrix(0.7364162897954836 0.14209520795528022 -0.14209520795528022 0.7364162897954836 -60835.8806992927 -20699.710063237606)" style="pointer-events: none;"/></g><g><path fill="none" stroke="rgb(255,140,0)" d="M -60255,-20362.726859926537 L -60599.060851876886,-20307.117909493314" stroke-opacity="1" stroke-width="2" stroke-linecap="butt" stroke-linejoin="miter" stroke-miterlimit="10"/><use xlink:href="#ygc709_12" transform="matrix(0.7403918089122645 -0.11966607412138555 0.11966607412138555 0.7403918089122645 -60602.23927485263 -20306.6041958152)" style="pointer-events: none;"/></g><g><path fill="none" stroke="rgb(255,140,0)" d="M -60243.72568290115,-20106.6875 L -60313.21765473248,-19935.021594222308" stroke-opacity="1" stroke-width="2" stroke-linecap="butt" stroke-linejoin="miter" stroke-miterlimit="10"/><use xlink:href="#ygc709_13" transform="matrix(0.28142293697660536 -0.6951986266841022 0.6951986266841022 0.28142293697660536 -60314.42577335024 -19932.03718075209)" style="pointer-events: none;"/></g><g><path fill="none" stroke="rgb(255,140,0)" d="M -59336.175583337055,-21189.059745166087 L -59747.73667356882,-21035.644442693996" stroke-opacity="1" stroke-width="2" stroke-linecap="butt" stroke-linejoin="miter" stroke-miterlimit="10"/><use xlink:href="#ygc709_14" transform="matrix(0.7027620680815826 -0.26196464583164103 0.26196464583164103 0.7027620680815826 -59750.75355608533 -21034.519856442334)" style="pointer-events: none;"/></g><g><path fill="none" stroke="rgb(255,140,0)" d="M -59299.73835937996,-21328.841090883416 L -59748.16214494388,-21047.923180558195" stroke-opacity="1" stroke-width="2" stroke-linecap="butt" stroke-linejoin="miter" stroke-miterlimit="10"/><use xlink:href="#ygc709_14" transform="matrix(0.6355823772815632 -0.3981645912045879 0.3981645912045879 0.6355823772815632 -59750.89063222131 -21046.21390248464)" style="pointer-events: none;"/></g><g><path fill="none" stroke="rgb(255,140,0)" d="M -59189.79155805264,-21083.476839035957 L -59747.465518454585,-21022.635524175203" stroke-opacity="1" stroke-width="2" stroke-linecap="butt" stroke-linejoin="miter" stroke-miterlimit="10"/><use xlink:href="#ygc709_14" transform="matrix(0.745576033486446 -0.08134112299825934 0.08134112299825934 0.745576033486446 -59750.66619675285 -21022.286335419874)" style="pointer-events: none;"/></g><g><path fill="none" stroke="rgb(255,140,0)" d="M -59189.24489797052,-20946.85617478515 L -59747.468991242415,-21011.4572135884" stroke-opacity="1" stroke-width="2" stroke-linecap="butt" stroke-linejoin="miter" stroke-miterlimit="10"/><use xlink:href="#ygc709_14" transform="matrix(0.7450276985664964 0.08621907195458395 -0.08621907195458395 0.7450276985664964 -59750.66731559742 -21011.827342857727)" style="pointer-events: none;"/></g><g><path fill="none" stroke="rgb(255,140,0)" d="M -59337.10374144302,-20895.149743367685 L -59747.59632803962,-21004.054294703285" stroke-opacity="1" stroke-width="2" stroke-linecap="butt" stroke-linejoin="miter" stroke-miterlimit="10"/><use xlink:href="#ygc709_14" transform="matrix(0.7249218884811577 0.1923233100820388 -0.1923233100820388 0.7249218884811577 -59750.70834029885 -21004.879918136954)" style="pointer-events: none;"/></g></g></svg>