<svg xmlns="http://www.w3.org/2000/svg" width="1762px" height="1495px" viewBox="0 0 1762 1495" xmlns:xlink="http://www.w3.org/1999/xlink" style="overflow: hidden; display: block; width: 1762px; height: 1495px;"><defs><path fill="rgb(255,140,0)" stroke="rgb(255,140,0)" d="M 5,-5 L 0,0 L 5,5 Z" fill-opacity="1" stroke-opacity="1" stroke-width="1" stroke-linecap="butt" stroke-linejoin="miter" stroke-miterlimit="10" id="ygc375_0"/><path fill="rgb(255,140,0)" stroke="rgb(255,140,0)" d="M 5,-5 L 0,0 L 5,5 Z" fill-opacity="1" stroke-opacity="1" stroke-width="1" stroke-linecap="butt" stroke-linejoin="miter" stroke-miterlimit="10" id="ygc375_1"/><path fill="rgb(0,0,0)" stroke="rgb(0,0,0)" d="M 5,-5 L 0,0 L 5,5 Z" fill-opacity="1" stroke-opacity="1" stroke-width="1" stroke-linecap="butt" stroke-linejoin="miter" stroke-miterlimit="10" id="ygc375_2"/><path fill="rgb(255,140,0)" stroke="rgb(255,140,0)" d="M 5,-5 L 0,0 L 5,5 Z" fill-opacity="1" stroke-opacity="1" stroke-width="1" stroke-linecap="butt" stroke-linejoin="miter" stroke-miterlimit="10" id="ygc375_3"/><path fill="rgb(0,0,0)" stroke="rgb(0,0,0)" d="M 5,-5 L 0,0 L 5,5 Z" fill-opacity="1" stroke-opacity="1" stroke-width="1" stroke-linecap="butt" stroke-linejoin="miter" stroke-miterlimit="10" id="ygc375_4"/><path fill="rgb(255,140,0)" stroke="rgb(255,140,0)" d="M 5,-5 L 0,0 L 5,5 Z" fill-opacity="1" stroke-opacity="1" stroke-width="1" stroke-linecap="butt" stroke-linejoin="miter" stroke-miterlimit="10" id="ygc375_5"/><path fill="rgb(253,223,152)" stroke="rgb(253,223,152)" d="M 5,-5 L 0,0 L 5,5 Z" fill-opacity="1" stroke-opacity="1" stroke-width="1" stroke-linecap="butt" stroke-linejoin="miter" stroke-miterlimit="10" id="ygc375_6"/><path fill="rgb(253,223,152)" stroke="rgb(253,223,152)" d="M 5,-5 L 0,0 L 5,5 Z" fill-opacity="1" stroke-opacity="1" stroke-width="1" stroke-linecap="butt" stroke-linejoin="miter" stroke-miterlimit="10" id="ygc375_7"/><path fill="rgb(253,223,152)" stroke="rgb(253,223,152)" d="M 5,-5 L 0,0 L 5,5 Z" fill-opacity="1" stroke-opacity="1" stroke-width="1" stroke-linecap="butt" stroke-linejoin="miter" stroke-miterlimit="10" id="ygc375_8"/><path fill="rgb(253,223,152)" stroke="rgb(253,223,152)" d="M 5,-5 L 0,0 L 5,5 Z" fill-opacity="1" stroke-opacity="1" stroke-width="1" stroke-linecap="butt" stroke-linejoin="miter" stroke-miterlimit="10" id="ygc375_9"/><path fill="rgb(253,223,152)" stroke="rgb(253,223,152)" d="M 5,-5 L 0,0 L 5,5 Z" fill-opacity="1" stroke-opacity="1" stroke-width="1" stroke-linecap="butt" stroke-linejoin="miter" stroke-miterlimit="10" id="ygc375_10"/><path fill="rgb(255,140,0)" stroke="rgb(255,140,0)" d="M 5,-5 L 0,0 L 5,5 Z" fill-opacity="1" stroke-opacity="1" stroke-width="1" stroke-linecap="butt" stroke-linejoin="miter" stroke-miterlimit="10" id="ygc375_11"/><path fill="rgb(253,223,152)" stroke="rgb(253,223,152)" d="M 5,-5 L 0,0 L 5,5 Z" fill-opacity="1" stroke-opacity="1" stroke-width="1" stroke-linecap="butt" stroke-linejoin="miter" stroke-miterlimit="10" id="ygc375_12"/><path fill="rgb(253,223,152)" stroke="rgb(253,223,152)" d="M 5,-5 L 0,0 L 5,5 Z" fill-opacity="1" stroke-opacity="1" stroke-width="1" stroke-linecap="butt" stroke-linejoin="miter" stroke-miterlimit="10" id="ygc375_13"/><path fill="rgb(253,223,152)" stroke="rgb(253,223,152)" d="M 5,-5 L 0,0 L 5,5 Z" fill-opacity="1" stroke-opacity="1" stroke-width="1" stroke-linecap="butt" stroke-linejoin="miter" stroke-miterlimit="10" id="ygc375_14"/><path fill="rgb(253,223,152)" stroke="rgb(253,223,152)" d="M 5,-5 L 0,0 L 5,5 Z" fill-opacity="1" stroke-opacity="1" stroke-width="1" stroke-linecap="butt" stroke-linejoin="miter" stroke-miterlimit="10" id="ygc375_15"/><path fill="rgb(253,223,152)" stroke="rgb(253,223,152)" d="M 5,-5 L 0,0 L 5,5 Z" fill-opacity="1" stroke-opacity="1" stroke-width="1" stroke-linecap="butt" stroke-linejoin="miter" stroke-miterlimit="10" id="ygc375_16"/><path fill="rgb(255,140,0)" stroke="rgb(255,140,0)" d="M 5,-5 L 0,0 L 5,5 Z" fill-opacity="1" stroke-opacity="1" stroke-width="1" stroke-linecap="butt" stroke-linejoin="miter" stroke-miterlimit="10" id="ygc375_17"/></defs><g style="pointer-events:visiblePainted" transform="translate(61253.5 21413.90625)" image-rendering="auto" shape-rendering="auto"><g><svg xmlns="http://www.w3.org/2000/svg" version="1.1" id="usericon_female1" x="-59660" y="-20300" width="40" height="40" viewBox="0 0 75 75" xml:space="preserve" preserveAspectRatio="none">
    <path fill="#FFFFFF" d="M41.39,25.38c0,0.13-0.05,0.25-0.14,0.34l-3.64,3.64l-0.68,0.68c-0.09,0.09-0.21,0.14-0.34,0.14       s-0.25-0.05-0.34-0.14l-0.68-0.68l-1.82-1.82c-0.09-0.09-0.14-0.21-0.14-0.34s0.05-0.25,0.14-0.34l0.68-0.68       c0.09-0.09,0.21-0.14,0.34-0.14s0.25,0.05,0.34,0.14l1.48,1.48l3.29-3.3c0.09-0.09,0.21-0.14,0.34-0.14s0.25,0.05,0.34,0.14       l0.68,0.68C41.35,25.13,41.39,25.25,41.39,25.38z"/>
    <circle fill="#F4E6DC" stroke="#EADCD3" stroke-miterlimit="10" cx="37.5" cy="37.5" r="37"/>
    <rect x="18.37" y="29.42" fill="#B7B7B7" width="37.66" height="25.01"/>
    <path fill="#998474" d="M47.08,52.05h-5.69v-5.67H33v5.67h-6.52c-7.32,0-13.35,5.48-14.24,12.55c6.6,6.14,15.45,9.9,25.18,9.9       c9.16,0,17.53-3.33,23.99-8.84C61.01,58.08,54.76,52.05,47.08,52.05z"/>
    <path fill="#8E7968" d="M47.08,52.05h-5.69v-5.67h-3.97V74.5c0.03,0,0.06,0,0.09,0c9.12,0,17.46-3.3,23.91-8.77       C61.05,58.12,54.78,52.05,47.08,52.05z"/>
    <circle opacity="0.05" cx="37.19" cy="33.39" r="15.62"/>
    <circle fill="#998474" cx="36.78" cy="32.05" r="15.62"/>
    <path fill="#8E7968" d="M37.19,16.45v31.2c8.43-0.22,15.21-7.11,15.21-15.6S45.63,16.67,37.19,16.45z"/>
    <path opacity="0.1" fill="#56513A" d="M56.71,42.07l-0.23-15.12c-1.23-9.81-9.59-16.07-19.74-16.07c-9.9,0-18.09,6.6-19.62,16.07       l-0.47,15.1c-3.37,0.5-5.95,3.4-5.95,6.9c0,3.86,3.13,6.99,6.99,6.99c3.35,0,6.88-2.35,7.56-5.49l0,0       c0.07-0.42,0.16-0.86,0.16-1.3c0,0-0.04-14.81,0-19.42c1.52,0.54,2.51,0.84,4.22,0.84c6.11,0,11.55-1.66,13.71-7       c1.16,1.45,2.66,2.75,4.69,2.75c0.11,0,0,29.5,0,29.5l8.89,0c3.23-0.62,5.67-3.45,5.67-6.86C62.58,45.48,60.03,42.6,56.71,42.07z"/>
    <path fill="#E3E7E8" d="M56.71,40.82L56.48,25.7c-1.23-9.81-9.59-16.07-19.74-16.07c-9.9,0-18.09,6.6-19.62,16.07l-0.47,15.1       c-3.37,0.5-5.95,3.4-5.95,6.9c0,3.86,3.13,6.99,6.99,6.99c3.35,0,6.3-2.35,6.98-5.49h-0.03c0.07-0.42,0.11-0.86,0.11-1.3       c0,0-0.01-14.81,0.03-19.42c1.52,0.54,3.14,0.84,4.85,0.84c6.11,0,11.34-2.13,13.5-7.47c1.16,1.45,3.28,3.21,5.31,3.21       c0.11,0,0,29.5,0,29.5l8.48,0c3.23-0.62,5.67-3.45,5.67-6.86C62.58,44.23,60.03,41.35,56.71,40.82z"/>
    <path fill="#C1C5C6" d="M21.41,27.98V46.2h-0.03c-0.25,2.66-2.49,4.74-5.22,4.74c-2.83,0-5.13-2.24-5.23-5.04       c-0.16,0.58-0.24,1.19-0.24,1.81c0,3.86,3.13,6.99,6.99,6.99c3.35,0,6.3-2.35,6.98-5.49h-0.03c0.07-0.42,0.11-0.86,0.11-1.3       c0,0-0.01-14.48,0.03-19.25C23.62,28.55,22.49,28.32,21.41,27.98z"/>
    <g>
      <path fill="#C1C5C6" d="M56.71,40.85l-0.23-15.12c-1.03-8.25-7.11-13.97-15.05-15.59c0.19,0.97,0.29,1.96,0.29,2.98         c0,8.63-6.99,15.62-15.62,15.62c-0.23,0-0.46-0.02-0.7-0.04c1.34,0.41,2.75,0.65,4.22,0.65c6.11,0,11.34-2.13,13.5-7.47         c1.16,1.45,3.28,3.21,5.31,3.21c0.11,0,0,29.5,0,29.5l8.48,0c3.23-0.62,5.67-3.45,5.67-6.86C62.58,44.26,60.03,41.38,56.71,40.85         z"/>
    </g>
    <path fill="#63D5DB" d="M47.08,52.05l-9.53,13.16L26.48,52.05c-7.29,0-13.3,5.44-14.23,12.48c6.61,6.18,15.49,9.97,25.25,9.97       c9.12,0,17.46-3.3,23.91-8.77C61.05,58.12,54.78,52.05,47.08,52.05z"/>
    <path fill="#33BDD3" d="M47.08,52.05L37.5,65.21v9.29h0c9.12,0,17.46-3.31,23.91-8.77C61.05,58.12,54.78,52.05,47.08,52.05z"/>
  </svg></g><g><svg xmlns="http://www.w3.org/2000/svg" version="1.1" id="usericon_female1" x="-59630" y="-20350.625" width="40" height="40" viewBox="0 0 75 75" xml:space="preserve" preserveAspectRatio="none">
    <path fill="#FFFFFF" d="M41.39,25.38c0,0.13-0.05,0.25-0.14,0.34l-3.64,3.64l-0.68,0.68c-0.09,0.09-0.21,0.14-0.34,0.14       s-0.25-0.05-0.34-0.14l-0.68-0.68l-1.82-1.82c-0.09-0.09-0.14-0.21-0.14-0.34s0.05-0.25,0.14-0.34l0.68-0.68       c0.09-0.09,0.21-0.14,0.34-0.14s0.25,0.05,0.34,0.14l1.48,1.48l3.29-3.3c0.09-0.09,0.21-0.14,0.34-0.14s0.25,0.05,0.34,0.14       l0.68,0.68C41.35,25.13,41.39,25.25,41.39,25.38z"/>
    <circle fill="#F4E6DC" stroke="#EADCD3" stroke-miterlimit="10" cx="37.5" cy="37.5" r="37"/>
    <rect x="18.37" y="29.42" fill="#B7B7B7" width="37.66" height="25.01"/>
    <path fill="#998474" d="M47.08,52.05h-5.69v-5.67H33v5.67h-6.52c-7.32,0-13.35,5.48-14.24,12.55c6.6,6.14,15.45,9.9,25.18,9.9       c9.16,0,17.53-3.33,23.99-8.84C61.01,58.08,54.76,52.05,47.08,52.05z"/>
    <path fill="#8E7968" d="M47.08,52.05h-5.69v-5.67h-3.97V74.5c0.03,0,0.06,0,0.09,0c9.12,0,17.46-3.3,23.91-8.77       C61.05,58.12,54.78,52.05,47.08,52.05z"/>
    <circle opacity="0.05" cx="37.19" cy="33.39" r="15.62"/>
    <circle fill="#998474" cx="36.78" cy="32.05" r="15.62"/>
    <path fill="#8E7968" d="M37.19,16.45v31.2c8.43-0.22,15.21-7.11,15.21-15.6S45.63,16.67,37.19,16.45z"/>
    <path opacity="0.1" fill="#56513A" d="M56.71,42.07l-0.23-15.12c-1.23-9.81-9.59-16.07-19.74-16.07c-9.9,0-18.09,6.6-19.62,16.07       l-0.47,15.1c-3.37,0.5-5.95,3.4-5.95,6.9c0,3.86,3.13,6.99,6.99,6.99c3.35,0,6.88-2.35,7.56-5.49l0,0       c0.07-0.42,0.16-0.86,0.16-1.3c0,0-0.04-14.81,0-19.42c1.52,0.54,2.51,0.84,4.22,0.84c6.11,0,11.55-1.66,13.71-7       c1.16,1.45,2.66,2.75,4.69,2.75c0.11,0,0,29.5,0,29.5l8.89,0c3.23-0.62,5.67-3.45,5.67-6.86C62.58,45.48,60.03,42.6,56.71,42.07z"/>
    <path fill="#E3E7E8" d="M56.71,40.82L56.48,25.7c-1.23-9.81-9.59-16.07-19.74-16.07c-9.9,0-18.09,6.6-19.62,16.07l-0.47,15.1       c-3.37,0.5-5.95,3.4-5.95,6.9c0,3.86,3.13,6.99,6.99,6.99c3.35,0,6.3-2.35,6.98-5.49h-0.03c0.07-0.42,0.11-0.86,0.11-1.3       c0,0-0.01-14.81,0.03-19.42c1.52,0.54,3.14,0.84,4.85,0.84c6.11,0,11.34-2.13,13.5-7.47c1.16,1.45,3.28,3.21,5.31,3.21       c0.11,0,0,29.5,0,29.5l8.48,0c3.23-0.62,5.67-3.45,5.67-6.86C62.58,44.23,60.03,41.35,56.71,40.82z"/>
    <path fill="#C1C5C6" d="M21.41,27.98V46.2h-0.03c-0.25,2.66-2.49,4.74-5.22,4.74c-2.83,0-5.13-2.24-5.23-5.04       c-0.16,0.58-0.24,1.19-0.24,1.81c0,3.86,3.13,6.99,6.99,6.99c3.35,0,6.3-2.35,6.98-5.49h-0.03c0.07-0.42,0.11-0.86,0.11-1.3       c0,0-0.01-14.48,0.03-19.25C23.62,28.55,22.49,28.32,21.41,27.98z"/>
    <g>
      <path fill="#C1C5C6" d="M56.71,40.85l-0.23-15.12c-1.03-8.25-7.11-13.97-15.05-15.59c0.19,0.97,0.29,1.96,0.29,2.98         c0,8.63-6.99,15.62-15.62,15.62c-0.23,0-0.46-0.02-0.7-0.04c1.34,0.41,2.75,0.65,4.22,0.65c6.11,0,11.34-2.13,13.5-7.47         c1.16,1.45,3.28,3.21,5.31,3.21c0.11,0,0,29.5,0,29.5l8.48,0c3.23-0.62,5.67-3.45,5.67-6.86C62.58,44.26,60.03,41.38,56.71,40.85         z"/>
    </g>
    <path fill="#63D5DB" d="M47.08,52.05l-9.53,13.16L26.48,52.05c-7.29,0-13.3,5.44-14.23,12.48c6.61,6.18,15.49,9.97,25.25,9.97       c9.12,0,17.46-3.3,23.91-8.77C61.05,58.12,54.78,52.05,47.08,52.05z"/>
    <path fill="#33BDD3" d="M47.08,52.05L37.5,65.21v9.29h0c9.12,0,17.46-3.31,23.91-8.77C61.05,58.12,54.78,52.05,47.08,52.05z"/>
  </svg></g><g><svg xmlns="http://www.w3.org/2000/svg" version="1.1" id="usericon_female1" x="-59600" y="-20260" width="40" height="40" viewBox="0 0 75 75" xml:space="preserve" preserveAspectRatio="none">
    <path fill="#FFFFFF" d="M41.39,25.38c0,0.13-0.05,0.25-0.14,0.34l-3.64,3.64l-0.68,0.68c-0.09,0.09-0.21,0.14-0.34,0.14       s-0.25-0.05-0.34-0.14l-0.68-0.68l-1.82-1.82c-0.09-0.09-0.14-0.21-0.14-0.34s0.05-0.25,0.14-0.34l0.68-0.68       c0.09-0.09,0.21-0.14,0.34-0.14s0.25,0.05,0.34,0.14l1.48,1.48l3.29-3.3c0.09-0.09,0.21-0.14,0.34-0.14s0.25,0.05,0.34,0.14       l0.68,0.68C41.35,25.13,41.39,25.25,41.39,25.38z"/>
    <circle fill="#F4E6DC" stroke="#EADCD3" stroke-miterlimit="10" cx="37.5" cy="37.5" r="37"/>
    <rect x="18.37" y="29.42" fill="#B7B7B7" width="37.66" height="25.01"/>
    <path fill="#998474" d="M47.08,52.05h-5.69v-5.67H33v5.67h-6.52c-7.32,0-13.35,5.48-14.24,12.55c6.6,6.14,15.45,9.9,25.18,9.9       c9.16,0,17.53-3.33,23.99-8.84C61.01,58.08,54.76,52.05,47.08,52.05z"/>
    <path fill="#8E7968" d="M47.08,52.05h-5.69v-5.67h-3.97V74.5c0.03,0,0.06,0,0.09,0c9.12,0,17.46-3.3,23.91-8.77       C61.05,58.12,54.78,52.05,47.08,52.05z"/>
    <circle opacity="0.05" cx="37.19" cy="33.39" r="15.62"/>
    <circle fill="#998474" cx="36.78" cy="32.05" r="15.62"/>
    <path fill="#8E7968" d="M37.19,16.45v31.2c8.43-0.22,15.21-7.11,15.21-15.6S45.63,16.67,37.19,16.45z"/>
    <path opacity="0.1" fill="#56513A" d="M56.71,42.07l-0.23-15.12c-1.23-9.81-9.59-16.07-19.74-16.07c-9.9,0-18.09,6.6-19.62,16.07       l-0.47,15.1c-3.37,0.5-5.95,3.4-5.95,6.9c0,3.86,3.13,6.99,6.99,6.99c3.35,0,6.88-2.35,7.56-5.49l0,0       c0.07-0.42,0.16-0.86,0.16-1.3c0,0-0.04-14.81,0-19.42c1.52,0.54,2.51,0.84,4.22,0.84c6.11,0,11.55-1.66,13.71-7       c1.16,1.45,2.66,2.75,4.69,2.75c0.11,0,0,29.5,0,29.5l8.89,0c3.23-0.62,5.67-3.45,5.67-6.86C62.58,45.48,60.03,42.6,56.71,42.07z"/>
    <path fill="#E3E7E8" d="M56.71,40.82L56.48,25.7c-1.23-9.81-9.59-16.07-19.74-16.07c-9.9,0-18.09,6.6-19.62,16.07l-0.47,15.1       c-3.37,0.5-5.95,3.4-5.95,6.9c0,3.86,3.13,6.99,6.99,6.99c3.35,0,6.3-2.35,6.98-5.49h-0.03c0.07-0.42,0.11-0.86,0.11-1.3       c0,0-0.01-14.81,0.03-19.42c1.52,0.54,3.14,0.84,4.85,0.84c6.11,0,11.34-2.13,13.5-7.47c1.16,1.45,3.28,3.21,5.31,3.21       c0.11,0,0,29.5,0,29.5l8.48,0c3.23-0.62,5.67-3.45,5.67-6.86C62.58,44.23,60.03,41.35,56.71,40.82z"/>
    <path fill="#C1C5C6" d="M21.41,27.98V46.2h-0.03c-0.25,2.66-2.49,4.74-5.22,4.74c-2.83,0-5.13-2.24-5.23-5.04       c-0.16,0.58-0.24,1.19-0.24,1.81c0,3.86,3.13,6.99,6.99,6.99c3.35,0,6.3-2.35,6.98-5.49h-0.03c0.07-0.42,0.11-0.86,0.11-1.3       c0,0-0.01-14.48,0.03-19.25C23.62,28.55,22.49,28.32,21.41,27.98z"/>
    <g>
      <path fill="#C1C5C6" d="M56.71,40.85l-0.23-15.12c-1.03-8.25-7.11-13.97-15.05-15.59c0.19,0.97,0.29,1.96,0.29,2.98         c0,8.63-6.99,15.62-15.62,15.62c-0.23,0-0.46-0.02-0.7-0.04c1.34,0.41,2.75,0.65,4.22,0.65c6.11,0,11.34-2.13,13.5-7.47         c1.16,1.45,3.28,3.21,5.31,3.21c0.11,0,0,29.5,0,29.5l8.48,0c3.23-0.62,5.67-3.45,5.67-6.86C62.58,44.26,60.03,41.38,56.71,40.85         z"/>
    </g>
    <path fill="#63D5DB" d="M47.08,52.05l-9.53,13.16L26.48,52.05c-7.29,0-13.3,5.44-14.23,12.48c6.61,6.18,15.49,9.97,25.25,9.97       c9.12,0,17.46-3.3,23.91-8.77C61.05,58.12,54.78,52.05,47.08,52.05z"/>
    <path fill="#33BDD3" d="M47.08,52.05L37.5,65.21v9.29h0c9.12,0,17.46-3.31,23.91-8.77C61.05,58.12,54.78,52.05,47.08,52.05z"/>
  </svg></g><g><svg xmlns="http://www.w3.org/2000/svg" version="1.1" id="usericon_female1" x="-59570" y="-20220" width="40" height="40" viewBox="0 0 75 75" xml:space="preserve" preserveAspectRatio="none">
    <path fill="#FFFFFF" d="M41.39,25.38c0,0.13-0.05,0.25-0.14,0.34l-3.64,3.64l-0.68,0.68c-0.09,0.09-0.21,0.14-0.34,0.14       s-0.25-0.05-0.34-0.14l-0.68-0.68l-1.82-1.82c-0.09-0.09-0.14-0.21-0.14-0.34s0.05-0.25,0.14-0.34l0.68-0.68       c0.09-0.09,0.21-0.14,0.34-0.14s0.25,0.05,0.34,0.14l1.48,1.48l3.29-3.3c0.09-0.09,0.21-0.14,0.34-0.14s0.25,0.05,0.34,0.14       l0.68,0.68C41.35,25.13,41.39,25.25,41.39,25.38z"/>
    <circle fill="#F4E6DC" stroke="#EADCD3" stroke-miterlimit="10" cx="37.5" cy="37.5" r="37"/>
    <rect x="18.37" y="29.42" fill="#B7B7B7" width="37.66" height="25.01"/>
    <path fill="#998474" d="M47.08,52.05h-5.69v-5.67H33v5.67h-6.52c-7.32,0-13.35,5.48-14.24,12.55c6.6,6.14,15.45,9.9,25.18,9.9       c9.16,0,17.53-3.33,23.99-8.84C61.01,58.08,54.76,52.05,47.08,52.05z"/>
    <path fill="#8E7968" d="M47.08,52.05h-5.69v-5.67h-3.97V74.5c0.03,0,0.06,0,0.09,0c9.12,0,17.46-3.3,23.91-8.77       C61.05,58.12,54.78,52.05,47.08,52.05z"/>
    <circle opacity="0.05" cx="37.19" cy="33.39" r="15.62"/>
    <circle fill="#998474" cx="36.78" cy="32.05" r="15.62"/>
    <path fill="#8E7968" d="M37.19,16.45v31.2c8.43-0.22,15.21-7.11,15.21-15.6S45.63,16.67,37.19,16.45z"/>
    <path opacity="0.1" fill="#56513A" d="M56.71,42.07l-0.23-15.12c-1.23-9.81-9.59-16.07-19.74-16.07c-9.9,0-18.09,6.6-19.62,16.07       l-0.47,15.1c-3.37,0.5-5.95,3.4-5.95,6.9c0,3.86,3.13,6.99,6.99,6.99c3.35,0,6.88-2.35,7.56-5.49l0,0       c0.07-0.42,0.16-0.86,0.16-1.3c0,0-0.04-14.81,0-19.42c1.52,0.54,2.51,0.84,4.22,0.84c6.11,0,11.55-1.66,13.71-7       c1.16,1.45,2.66,2.75,4.69,2.75c0.11,0,0,29.5,0,29.5l8.89,0c3.23-0.62,5.67-3.45,5.67-6.86C62.58,45.48,60.03,42.6,56.71,42.07z"/>
    <path fill="#E3E7E8" d="M56.71,40.82L56.48,25.7c-1.23-9.81-9.59-16.07-19.74-16.07c-9.9,0-18.09,6.6-19.62,16.07l-0.47,15.1       c-3.37,0.5-5.95,3.4-5.95,6.9c0,3.86,3.13,6.99,6.99,6.99c3.35,0,6.3-2.35,6.98-5.49h-0.03c0.07-0.42,0.11-0.86,0.11-1.3       c0,0-0.01-14.81,0.03-19.42c1.52,0.54,3.14,0.84,4.85,0.84c6.11,0,11.34-2.13,13.5-7.47c1.16,1.45,3.28,3.21,5.31,3.21       c0.11,0,0,29.5,0,29.5l8.48,0c3.23-0.62,5.67-3.45,5.67-6.86C62.58,44.23,60.03,41.35,56.71,40.82z"/>
    <path fill="#C1C5C6" d="M21.41,27.98V46.2h-0.03c-0.25,2.66-2.49,4.74-5.22,4.74c-2.83,0-5.13-2.24-5.23-5.04       c-0.16,0.58-0.24,1.19-0.24,1.81c0,3.86,3.13,6.99,6.99,6.99c3.35,0,6.3-2.35,6.98-5.49h-0.03c0.07-0.42,0.11-0.86,0.11-1.3       c0,0-0.01-14.48,0.03-19.25C23.62,28.55,22.49,28.32,21.41,27.98z"/>
    <g>
      <path fill="#C1C5C6" d="M56.71,40.85l-0.23-15.12c-1.03-8.25-7.11-13.97-15.05-15.59c0.19,0.97,0.29,1.96,0.29,2.98         c0,8.63-6.99,15.62-15.62,15.62c-0.23,0-0.46-0.02-0.7-0.04c1.34,0.41,2.75,0.65,4.22,0.65c6.11,0,11.34-2.13,13.5-7.47         c1.16,1.45,3.28,3.21,5.31,3.21c0.11,0,0,29.5,0,29.5l8.48,0c3.23-0.62,5.67-3.45,5.67-6.86C62.58,44.26,60.03,41.38,56.71,40.85         z"/>
    </g>
    <path fill="#63D5DB" d="M47.08,52.05l-9.53,13.16L26.48,52.05c-7.29,0-13.3,5.44-14.23,12.48c6.61,6.18,15.49,9.97,25.25,9.97       c9.12,0,17.46-3.3,23.91-8.77C61.05,58.12,54.78,52.05,47.08,52.05z"/>
    <path fill="#33BDD3" d="M47.08,52.05L37.5,65.21v9.29h0c9.12,0,17.46-3.31,23.91-8.77C61.05,58.12,54.78,52.05,47.08,52.05z"/>
  </svg></g><g><svg xmlns="http://www.w3.org/2000/svg" version="1.1" id="usericon_female1" x="-59630" y="-20180" width="40" height="40" viewBox="0 0 75 75" xml:space="preserve" preserveAspectRatio="none">
    <path fill="#FFFFFF" d="M41.39,25.38c0,0.13-0.05,0.25-0.14,0.34l-3.64,3.64l-0.68,0.68c-0.09,0.09-0.21,0.14-0.34,0.14       s-0.25-0.05-0.34-0.14l-0.68-0.68l-1.82-1.82c-0.09-0.09-0.14-0.21-0.14-0.34s0.05-0.25,0.14-0.34l0.68-0.68       c0.09-0.09,0.21-0.14,0.34-0.14s0.25,0.05,0.34,0.14l1.48,1.48l3.29-3.3c0.09-0.09,0.21-0.14,0.34-0.14s0.25,0.05,0.34,0.14       l0.68,0.68C41.35,25.13,41.39,25.25,41.39,25.38z"/>
    <circle fill="#F4E6DC" stroke="#EADCD3" stroke-miterlimit="10" cx="37.5" cy="37.5" r="37"/>
    <rect x="18.37" y="29.42" fill="#B7B7B7" width="37.66" height="25.01"/>
    <path fill="#998474" d="M47.08,52.05h-5.69v-5.67H33v5.67h-6.52c-7.32,0-13.35,5.48-14.24,12.55c6.6,6.14,15.45,9.9,25.18,9.9       c9.16,0,17.53-3.33,23.99-8.84C61.01,58.08,54.76,52.05,47.08,52.05z"/>
    <path fill="#8E7968" d="M47.08,52.05h-5.69v-5.67h-3.97V74.5c0.03,0,0.06,0,0.09,0c9.12,0,17.46-3.3,23.91-8.77       C61.05,58.12,54.78,52.05,47.08,52.05z"/>
    <circle opacity="0.05" cx="37.19" cy="33.39" r="15.62"/>
    <circle fill="#998474" cx="36.78" cy="32.05" r="15.62"/>
    <path fill="#8E7968" d="M37.19,16.45v31.2c8.43-0.22,15.21-7.11,15.21-15.6S45.63,16.67,37.19,16.45z"/>
    <path opacity="0.1" fill="#56513A" d="M56.71,42.07l-0.23-15.12c-1.23-9.81-9.59-16.07-19.74-16.07c-9.9,0-18.09,6.6-19.62,16.07       l-0.47,15.1c-3.37,0.5-5.95,3.4-5.95,6.9c0,3.86,3.13,6.99,6.99,6.99c3.35,0,6.88-2.35,7.56-5.49l0,0       c0.07-0.42,0.16-0.86,0.16-1.3c0,0-0.04-14.81,0-19.42c1.52,0.54,2.51,0.84,4.22,0.84c6.11,0,11.55-1.66,13.71-7       c1.16,1.45,2.66,2.75,4.69,2.75c0.11,0,0,29.5,0,29.5l8.89,0c3.23-0.62,5.67-3.45,5.67-6.86C62.58,45.48,60.03,42.6,56.71,42.07z"/>
    <path fill="#E3E7E8" d="M56.71,40.82L56.48,25.7c-1.23-9.81-9.59-16.07-19.74-16.07c-9.9,0-18.09,6.6-19.62,16.07l-0.47,15.1       c-3.37,0.5-5.95,3.4-5.95,6.9c0,3.86,3.13,6.99,6.99,6.99c3.35,0,6.3-2.35,6.98-5.49h-0.03c0.07-0.42,0.11-0.86,0.11-1.3       c0,0-0.01-14.81,0.03-19.42c1.52,0.54,3.14,0.84,4.85,0.84c6.11,0,11.34-2.13,13.5-7.47c1.16,1.45,3.28,3.21,5.31,3.21       c0.11,0,0,29.5,0,29.5l8.48,0c3.23-0.62,5.67-3.45,5.67-6.86C62.58,44.23,60.03,41.35,56.71,40.82z"/>
    <path fill="#C1C5C6" d="M21.41,27.98V46.2h-0.03c-0.25,2.66-2.49,4.74-5.22,4.74c-2.83,0-5.13-2.24-5.23-5.04       c-0.16,0.58-0.24,1.19-0.24,1.81c0,3.86,3.13,6.99,6.99,6.99c3.35,0,6.3-2.35,6.98-5.49h-0.03c0.07-0.42,0.11-0.86,0.11-1.3       c0,0-0.01-14.48,0.03-19.25C23.62,28.55,22.49,28.32,21.41,27.98z"/>
    <g>
      <path fill="#C1C5C6" d="M56.71,40.85l-0.23-15.12c-1.03-8.25-7.11-13.97-15.05-15.59c0.19,0.97,0.29,1.96,0.29,2.98         c0,8.63-6.99,15.62-15.62,15.62c-0.23,0-0.46-0.02-0.7-0.04c1.34,0.41,2.75,0.65,4.22,0.65c6.11,0,11.34-2.13,13.5-7.47         c1.16,1.45,3.28,3.21,5.31,3.21c0.11,0,0,29.5,0,29.5l8.48,0c3.23-0.62,5.67-3.45,5.67-6.86C62.58,44.26,60.03,41.38,56.71,40.85         z"/>
    </g>
    <path fill="#63D5DB" d="M47.08,52.05l-9.53,13.16L26.48,52.05c-7.29,0-13.3,5.44-14.23,12.48c6.61,6.18,15.49,9.97,25.25,9.97       c9.12,0,17.46-3.3,23.91-8.77C61.05,58.12,54.78,52.05,47.08,52.05z"/>
    <path fill="#33BDD3" d="M47.08,52.05L37.5,65.21v9.29h0c9.12,0,17.46-3.31,23.91-8.77C61.05,58.12,54.78,52.05,47.08,52.05z"/>
  </svg></g><g data-referencesafe="true" transform="translate(-60266 -20494.953125)"><rect fill="#ff8c00" stroke="#FFF" stroke-width="1px" width="532" height="549.906"/><rect fill="#FFF" width="524" height="523.906" x="4" y="22"/><g class="demo-collapse-button" transform="translate(515 5)"><rect fill="#FFF" width="12" height="12" rx="1" ry="1"/><rect width="8" height="2" x="2" y="5" fill="#ff8c00" stroke-width="0"/></g></g><g transform="translate(-60262 -20490.953125)"><rect fill="rgb(255,140,0)" stroke="rgb(255,140,0)" fill-opacity="1" stroke-opacity="1" stroke-width="1" stroke-linecap="butt" stroke-linejoin="miter" stroke-miterlimit="10" width="510" height="31" x="0" y="0"/><text font-family="'Arial'" font-size="27px" font-style="normal" font-weight="bold" text-decoration="none" text-anchor="middle" fill="rgb(255,255,255)" fill-opacity="1" transform="translate(255 0)"><tspan dy="0.9074074074074074em" x="0">Edge</tspan></text></g><g><path fill="none" stroke="rgb(255,140,0)" d="M -60000,-20064.140625 L -60000,-20005.046875 L -59927.25,-20005.046875" stroke-opacity="1" stroke-width="2" stroke-linecap="butt" stroke-linejoin="miter" stroke-miterlimit="10"/><use xlink:href="#ygc375_0" transform="matrix(-0.75 0 0 -0.75 -59924.03033008589 -20005.046875)" style="pointer-events: none;"/></g><g><path fill="none" stroke="rgb(255,140,0)" d="M -60000,-20105.140625 L -60000,-20204.140625 Q -60000,-20204.640625 -60000.5,-20204.640625 L -60159,-20204.640625" stroke-opacity="1" stroke-width="2" stroke-linecap="butt" stroke-linejoin="miter" stroke-miterlimit="10"/><use xlink:href="#ygc375_1" transform="translate(-60163.292893218815 -20204.640625)" style="pointer-events: none;"/></g><g><path fill="none" stroke="rgb(0,0,0)" d="M -60210,-20287.953125 L -60210,-20296.578125" stroke-opacity="1" stroke-width="1" stroke-linecap="butt" stroke-linejoin="miter" stroke-miterlimit="10"/><use xlink:href="#ygc375_2" transform="matrix(0 0.75 -0.75 0 -60210 -20299.79779491411)" style="pointer-events: none;"/></g><rect fill="rgb(253,223,152)" stroke="rgb(245,245,245)" stroke-opacity="1" stroke-width="1" stroke-linecap="butt" stroke-linejoin="miter" stroke-miterlimit="10" fill-opacity="1" width="514" height="41" x="-60257" y="-20105.1"/><g transform="translate(-60019.5 -20093.640625)"><text font-family="'Arial'" font-size="16px" font-style="normal" font-weight="normal" text-decoration="none" text-anchor="middle" fill="rgb(0,0,0)" fill-opacity="1" dy="0.875em" transform="translate(19.5 0.625)">Store</text></g><rect fill="rgb(253,223,152)" stroke="rgb(245,245,245)" stroke-opacity="1" stroke-width="1" stroke-linecap="butt" stroke-linejoin="miter" stroke-miterlimit="10" fill-opacity="1" width="90" height="344.5" x="-59835" y="-20466.9"/><g transform="translate(-59822 -20303.640625)"><text font-family="'Arial'" font-size="16px" font-style="normal" font-weight="normal" text-decoration="none" text-anchor="middle" fill="rgb(0,0,0)" fill-opacity="1" dy="0.875em" transform="translate(32 0.625)">Gateway</text></g><g><g><g transform="translate(-59789 -20555.390625)"><g transform="translate(0 0)"><rect x="0" y="0" width="271" height="24" rx="0" ry="0" stroke="rgb(255,255,255)" stroke-opacity="0" stroke-width="1" stroke-linecap="butt" stroke-linejoin="miter" stroke-miterlimit="10" fill="rgb(253,223,152)" fill-opacity="1"/><path d="M 27.1,0 L 0,0 L 0,24 L 27.1,24" stroke="rgb(255,140,0)" stroke-opacity="1" stroke-width="1" stroke-linecap="butt" stroke-linejoin="miter" stroke-miterlimit="10" fill="rgb(255,255,255)" fill-opacity="0" transform="translate(0 0)"/></g></g><g transform="translate(-59784 -20550.390625)"><text font-family="'Arial'" font-size="12px" font-style="normal" font-weight="normal" text-decoration="none" text-anchor="middle" fill="rgb(0,0,0)" fill-opacity="1" dy="0.9166666666666666em" transform="translate(130.5 0)">Gateway connects the clients to the Edge server.</text></g><g><path d="M -59660.084924623116,-20531.390625 L -59745,-20376.646119505494" stroke="rgb(255,140,0)" stroke-opacity="1" stroke-width="1" stroke-dasharray="0.01,2" stroke-dashoffset="0" stroke-linecap="round" stroke-linejoin="miter" stroke-miterlimit="10" fill="none"/></g></g></g><rect fill="rgb(253,223,152)" stroke="rgb(245,245,245)" stroke-opacity="1" stroke-width="1" stroke-linecap="butt" stroke-linejoin="miter" stroke-miterlimit="10" fill-opacity="1" width="90" height="166.625" x="-60255" y="-20468"/><g transform="translate(-60235.5 -20393.640625)"><text font-family="'Arial'" font-size="16px" font-style="normal" font-weight="normal" text-decoration="none" text-anchor="middle" fill="rgb(0,0,0)" fill-opacity="1" dy="0.875em" transform="translate(25.5 0.625)">Cluster</text></g><g><g><g transform="translate(-60165 -20602.953125)"><g transform="translate(0 0)"><rect x="0" y="0" width="235" height="78" rx="0" ry="0" stroke="rgb(255,255,255)" stroke-opacity="0" stroke-width="1" stroke-linecap="butt" stroke-linejoin="miter" stroke-miterlimit="10" fill="rgb(253,223,152)" fill-opacity="1"/><path d="M 23.5,0 L 0,0 L 0,78 L 23.5,78" stroke="rgb(255,140,0)" stroke-opacity="1" stroke-width="1" stroke-linecap="butt" stroke-linejoin="miter" stroke-miterlimit="10" fill="rgb(255,255,255)" fill-opacity="0" transform="translate(0 0)"/></g></g><g transform="translate(-60160 -20597.953125)"><text font-family="'Arial'" font-size="12px" font-style="normal" font-weight="normal" text-decoration="none" text-anchor="middle" fill="rgb(0,0,0)" fill-opacity="1" transform="translate(112.5 0)"><tspan dy="0.9166666666666666em" x="0">Cluster announces the status of the </tspan><tspan dy="1.5em" x="0">Edge node and provides information</tspan><tspan dy="1.5em" x="0">about other Edge nodes.</tspan><tspan dy="1.5em" x="0">Currently only GossipCluster is supported.</tspan></text></g><g><path d="M -60082.84332520042,-20524.953125 L -60165,-20434.29639423077" stroke="rgb(255,140,0)" stroke-opacity="1" stroke-width="1" stroke-dasharray="0.01,2" stroke-dashoffset="0" stroke-linecap="round" stroke-linejoin="miter" stroke-miterlimit="10" fill="none"/></g></g></g><rect fill="rgb(253,223,152)" stroke="rgb(245,245,245)" stroke-opacity="1" stroke-width="1" stroke-linecap="butt" stroke-linejoin="miter" stroke-miterlimit="10" fill-opacity="1" width="90" height="166.625" x="-60255" y="-20288"/><g transform="translate(-60234.5 -20213.640625)"><text font-family="'Arial'" font-size="16px" font-style="normal" font-weight="normal" text-decoration="none" text-anchor="middle" fill="rgb(0,0,0)" fill-opacity="1" dy="0.875em" transform="translate(24.5 0.625)">Tunnel</text></g><g><g><g transform="translate(-60569.75 -20163.328125)"><g transform="translate(0 0)"><rect x="0" y="0" width="292" height="42" rx="0" ry="0" stroke="rgb(255,255,255)" stroke-opacity="0" stroke-width="1" stroke-linecap="butt" stroke-linejoin="miter" stroke-miterlimit="10" fill="rgb(253,223,152)" fill-opacity="1"/><path d="M 262.8,0 L 292,0 L 292,42 L 262.8,42" stroke="rgb(255,140,0)" stroke-opacity="1" stroke-width="1" stroke-linecap="butt" stroke-linejoin="miter" stroke-miterlimit="10" fill="rgb(255,255,255)" fill-opacity="0" transform="translate(0 0)"/></g></g><g transform="translate(-60564.75 -20158.328125)"><text font-family="'Arial'" font-size="12px" font-style="normal" font-weight="normal" text-decoration="none" text-anchor="middle" fill="rgb(0,0,0)" fill-opacity="1" transform="translate(141 0)"><tspan dy="0.9166666666666666em" x="0">Tunnel connects Edge nodes to each other based on</tspan><tspan dy="1.5em" x="0">retrieved information from Cluster.</tspan></text></g><g><path d="M -60351.71389167503,-20163.328125 L -60255,-20191.52220394737" stroke="rgb(255,140,0)" stroke-opacity="1" stroke-width="1" stroke-dasharray="0.01,2" stroke-dashoffset="0" stroke-linecap="round" stroke-linejoin="miter" stroke-miterlimit="10" fill="none"/></g></g></g><g><path d="M -59922.5,-20023.271875 C -59919.95,-20035.421875 -59840.05,-20035.421875 -59837.5,-20023.271875 L -59837.5,-19986.821875 C -59840.05,-19974.671875 -59919.95,-19974.671875 -59922.5,-19986.821875 Z" stroke="rgb(253,223,152)" stroke-opacity="1" stroke-width="1" stroke-linecap="butt" stroke-linejoin="miter" stroke-miterlimit="10" fill="rgb(253,223,152)" fill-opacity="1"/><path d="M -59837.5,-20023.271875 C -59840.05,-20011.121875 -59919.95,-20011.121875 -59922.5,-20023.271875" stroke="rgb(253,223,152)" stroke-opacity="1" stroke-width="1" stroke-linecap="butt" stroke-linejoin="miter" stroke-miterlimit="10" fill="rgb(253,223,152)" fill-opacity="1"/></g><g transform="translate(-59922.5 -20035.421875)"><rect fill="rgb(255,255,255)" stroke="rgb(255,255,255)" fill-opacity="0.00784313725490196" stroke-opacity="0.00784313725490196" stroke-width="1" stroke-linecap="butt" stroke-linejoin="miter" stroke-miterlimit="10" width="85" height="60.75" x="0" y="0"/><text font-family="'Arial'" font-size="12px" font-style="normal" font-weight="normal" text-decoration="none" text-anchor="middle" fill="rgb(0,0,0)" fill-opacity="1" dy="0.9166666666666666em" transform="translate(42.5 23.375)">LocalDB</text></g><g><svg xmlns="http://www.w3.org/2000/svg" version="1.1" id="usericon_female1" x="-59660" y="-21084.953125" width="40" height="40" viewBox="0 0 75 75" xml:space="preserve" preserveAspectRatio="none">
    <path fill="#FFFFFF" d="M41.39,25.38c0,0.13-0.05,0.25-0.14,0.34l-3.64,3.64l-0.68,0.68c-0.09,0.09-0.21,0.14-0.34,0.14       s-0.25-0.05-0.34-0.14l-0.68-0.68l-1.82-1.82c-0.09-0.09-0.14-0.21-0.14-0.34s0.05-0.25,0.14-0.34l0.68-0.68       c0.09-0.09,0.21-0.14,0.34-0.14s0.25,0.05,0.34,0.14l1.48,1.48l3.29-3.3c0.09-0.09,0.21-0.14,0.34-0.14s0.25,0.05,0.34,0.14       l0.68,0.68C41.35,25.13,41.39,25.25,41.39,25.38z"/>
    <circle fill="#F4E6DC" stroke="#EADCD3" stroke-miterlimit="10" cx="37.5" cy="37.5" r="37"/>
    <rect x="18.37" y="29.42" fill="#B7B7B7" width="37.66" height="25.01"/>
    <path fill="#998474" d="M47.08,52.05h-5.69v-5.67H33v5.67h-6.52c-7.32,0-13.35,5.48-14.24,12.55c6.6,6.14,15.45,9.9,25.18,9.9       c9.16,0,17.53-3.33,23.99-8.84C61.01,58.08,54.76,52.05,47.08,52.05z"/>
    <path fill="#8E7968" d="M47.08,52.05h-5.69v-5.67h-3.97V74.5c0.03,0,0.06,0,0.09,0c9.12,0,17.46-3.3,23.91-8.77       C61.05,58.12,54.78,52.05,47.08,52.05z"/>
    <circle opacity="0.05" cx="37.19" cy="33.39" r="15.62"/>
    <circle fill="#998474" cx="36.78" cy="32.05" r="15.62"/>
    <path fill="#8E7968" d="M37.19,16.45v31.2c8.43-0.22,15.21-7.11,15.21-15.6S45.63,16.67,37.19,16.45z"/>
    <path opacity="0.1" fill="#56513A" d="M56.71,42.07l-0.23-15.12c-1.23-9.81-9.59-16.07-19.74-16.07c-9.9,0-18.09,6.6-19.62,16.07       l-0.47,15.1c-3.37,0.5-5.95,3.4-5.95,6.9c0,3.86,3.13,6.99,6.99,6.99c3.35,0,6.88-2.35,7.56-5.49l0,0       c0.07-0.42,0.16-0.86,0.16-1.3c0,0-0.04-14.81,0-19.42c1.52,0.54,2.51,0.84,4.22,0.84c6.11,0,11.55-1.66,13.71-7       c1.16,1.45,2.66,2.75,4.69,2.75c0.11,0,0,29.5,0,29.5l8.89,0c3.23-0.62,5.67-3.45,5.67-6.86C62.58,45.48,60.03,42.6,56.71,42.07z"/>
    <path fill="#E3E7E8" d="M56.71,40.82L56.48,25.7c-1.23-9.81-9.59-16.07-19.74-16.07c-9.9,0-18.09,6.6-19.62,16.07l-0.47,15.1       c-3.37,0.5-5.95,3.4-5.95,6.9c0,3.86,3.13,6.99,6.99,6.99c3.35,0,6.3-2.35,6.98-5.49h-0.03c0.07-0.42,0.11-0.86,0.11-1.3       c0,0-0.01-14.81,0.03-19.42c1.52,0.54,3.14,0.84,4.85,0.84c6.11,0,11.34-2.13,13.5-7.47c1.16,1.45,3.28,3.21,5.31,3.21       c0.11,0,0,29.5,0,29.5l8.48,0c3.23-0.62,5.67-3.45,5.67-6.86C62.58,44.23,60.03,41.35,56.71,40.82z"/>
    <path fill="#C1C5C6" d="M21.41,27.98V46.2h-0.03c-0.25,2.66-2.49,4.74-5.22,4.74c-2.83,0-5.13-2.24-5.23-5.04       c-0.16,0.58-0.24,1.19-0.24,1.81c0,3.86,3.13,6.99,6.99,6.99c3.35,0,6.3-2.35,6.98-5.49h-0.03c0.07-0.42,0.11-0.86,0.11-1.3       c0,0-0.01-14.48,0.03-19.25C23.62,28.55,22.49,28.32,21.41,27.98z"/>
    <g>
      <path fill="#C1C5C6" d="M56.71,40.85l-0.23-15.12c-1.03-8.25-7.11-13.97-15.05-15.59c0.19,0.97,0.29,1.96,0.29,2.98         c0,8.63-6.99,15.62-15.62,15.62c-0.23,0-0.46-0.02-0.7-0.04c1.34,0.41,2.75,0.65,4.22,0.65c6.11,0,11.34-2.13,13.5-7.47         c1.16,1.45,3.28,3.21,5.31,3.21c0.11,0,0,29.5,0,29.5l8.48,0c3.23-0.62,5.67-3.45,5.67-6.86C62.58,44.26,60.03,41.38,56.71,40.85         z"/>
    </g>
    <path fill="#63D5DB" d="M47.08,52.05l-9.53,13.16L26.48,52.05c-7.29,0-13.3,5.44-14.23,12.48c6.61,6.18,15.49,9.97,25.25,9.97       c9.12,0,17.46-3.3,23.91-8.77C61.05,58.12,54.78,52.05,47.08,52.05z"/>
    <path fill="#33BDD3" d="M47.08,52.05L37.5,65.21v9.29h0c9.12,0,17.46-3.31,23.91-8.77C61.05,58.12,54.78,52.05,47.08,52.05z"/>
  </svg></g><g><svg xmlns="http://www.w3.org/2000/svg" version="1.1" id="usericon_female1" x="-59630" y="-21135.578125" width="40" height="40" viewBox="0 0 75 75" xml:space="preserve" preserveAspectRatio="none">
    <path fill="#FFFFFF" d="M41.39,25.38c0,0.13-0.05,0.25-0.14,0.34l-3.64,3.64l-0.68,0.68c-0.09,0.09-0.21,0.14-0.34,0.14       s-0.25-0.05-0.34-0.14l-0.68-0.68l-1.82-1.82c-0.09-0.09-0.14-0.21-0.14-0.34s0.05-0.25,0.14-0.34l0.68-0.68       c0.09-0.09,0.21-0.14,0.34-0.14s0.25,0.05,0.34,0.14l1.48,1.48l3.29-3.3c0.09-0.09,0.21-0.14,0.34-0.14s0.25,0.05,0.34,0.14       l0.68,0.68C41.35,25.13,41.39,25.25,41.39,25.38z"/>
    <circle fill="#F4E6DC" stroke="#EADCD3" stroke-miterlimit="10" cx="37.5" cy="37.5" r="37"/>
    <rect x="18.37" y="29.42" fill="#B7B7B7" width="37.66" height="25.01"/>
    <path fill="#998474" d="M47.08,52.05h-5.69v-5.67H33v5.67h-6.52c-7.32,0-13.35,5.48-14.24,12.55c6.6,6.14,15.45,9.9,25.18,9.9       c9.16,0,17.53-3.33,23.99-8.84C61.01,58.08,54.76,52.05,47.08,52.05z"/>
    <path fill="#8E7968" d="M47.08,52.05h-5.69v-5.67h-3.97V74.5c0.03,0,0.06,0,0.09,0c9.12,0,17.46-3.3,23.91-8.77       C61.05,58.12,54.78,52.05,47.08,52.05z"/>
    <circle opacity="0.05" cx="37.19" cy="33.39" r="15.62"/>
    <circle fill="#998474" cx="36.78" cy="32.05" r="15.62"/>
    <path fill="#8E7968" d="M37.19,16.45v31.2c8.43-0.22,15.21-7.11,15.21-15.6S45.63,16.67,37.19,16.45z"/>
    <path opacity="0.1" fill="#56513A" d="M56.71,42.07l-0.23-15.12c-1.23-9.81-9.59-16.07-19.74-16.07c-9.9,0-18.09,6.6-19.62,16.07       l-0.47,15.1c-3.37,0.5-5.95,3.4-5.95,6.9c0,3.86,3.13,6.99,6.99,6.99c3.35,0,6.88-2.35,7.56-5.49l0,0       c0.07-0.42,0.16-0.86,0.16-1.3c0,0-0.04-14.81,0-19.42c1.52,0.54,2.51,0.84,4.22,0.84c6.11,0,11.55-1.66,13.71-7       c1.16,1.45,2.66,2.75,4.69,2.75c0.11,0,0,29.5,0,29.5l8.89,0c3.23-0.62,5.67-3.45,5.67-6.86C62.58,45.48,60.03,42.6,56.71,42.07z"/>
    <path fill="#E3E7E8" d="M56.71,40.82L56.48,25.7c-1.23-9.81-9.59-16.07-19.74-16.07c-9.9,0-18.09,6.6-19.62,16.07l-0.47,15.1       c-3.37,0.5-5.95,3.4-5.95,6.9c0,3.86,3.13,6.99,6.99,6.99c3.35,0,6.3-2.35,6.98-5.49h-0.03c0.07-0.42,0.11-0.86,0.11-1.3       c0,0-0.01-14.81,0.03-19.42c1.52,0.54,3.14,0.84,4.85,0.84c6.11,0,11.34-2.13,13.5-7.47c1.16,1.45,3.28,3.21,5.31,3.21       c0.11,0,0,29.5,0,29.5l8.48,0c3.23-0.62,5.67-3.45,5.67-6.86C62.58,44.23,60.03,41.35,56.71,40.82z"/>
    <path fill="#C1C5C6" d="M21.41,27.98V46.2h-0.03c-0.25,2.66-2.49,4.74-5.22,4.74c-2.83,0-5.13-2.24-5.23-5.04       c-0.16,0.58-0.24,1.19-0.24,1.81c0,3.86,3.13,6.99,6.99,6.99c3.35,0,6.3-2.35,6.98-5.49h-0.03c0.07-0.42,0.11-0.86,0.11-1.3       c0,0-0.01-14.48,0.03-19.25C23.62,28.55,22.49,28.32,21.41,27.98z"/>
    <g>
      <path fill="#C1C5C6" d="M56.71,40.85l-0.23-15.12c-1.03-8.25-7.11-13.97-15.05-15.59c0.19,0.97,0.29,1.96,0.29,2.98         c0,8.63-6.99,15.62-15.62,15.62c-0.23,0-0.46-0.02-0.7-0.04c1.34,0.41,2.75,0.65,4.22,0.65c6.11,0,11.34-2.13,13.5-7.47         c1.16,1.45,3.28,3.21,5.31,3.21c0.11,0,0,29.5,0,29.5l8.48,0c3.23-0.62,5.67-3.45,5.67-6.86C62.58,44.26,60.03,41.38,56.71,40.85         z"/>
    </g>
    <path fill="#63D5DB" d="M47.08,52.05l-9.53,13.16L26.48,52.05c-7.29,0-13.3,5.44-14.23,12.48c6.61,6.18,15.49,9.97,25.25,9.97       c9.12,0,17.46-3.3,23.91-8.77C61.05,58.12,54.78,52.05,47.08,52.05z"/>
    <path fill="#33BDD3" d="M47.08,52.05L37.5,65.21v9.29h0c9.12,0,17.46-3.31,23.91-8.77C61.05,58.12,54.78,52.05,47.08,52.05z"/>
  </svg></g><g><svg xmlns="http://www.w3.org/2000/svg" version="1.1" id="usericon_female1" x="-59600" y="-21044.953125" width="40" height="40" viewBox="0 0 75 75" xml:space="preserve" preserveAspectRatio="none">
    <path fill="#FFFFFF" d="M41.39,25.38c0,0.13-0.05,0.25-0.14,0.34l-3.64,3.64l-0.68,0.68c-0.09,0.09-0.21,0.14-0.34,0.14       s-0.25-0.05-0.34-0.14l-0.68-0.68l-1.82-1.82c-0.09-0.09-0.14-0.21-0.14-0.34s0.05-0.25,0.14-0.34l0.68-0.68       c0.09-0.09,0.21-0.14,0.34-0.14s0.25,0.05,0.34,0.14l1.48,1.48l3.29-3.3c0.09-0.09,0.21-0.14,0.34-0.14s0.25,0.05,0.34,0.14       l0.68,0.68C41.35,25.13,41.39,25.25,41.39,25.38z"/>
    <circle fill="#F4E6DC" stroke="#EADCD3" stroke-miterlimit="10" cx="37.5" cy="37.5" r="37"/>
    <rect x="18.37" y="29.42" fill="#B7B7B7" width="37.66" height="25.01"/>
    <path fill="#998474" d="M47.08,52.05h-5.69v-5.67H33v5.67h-6.52c-7.32,0-13.35,5.48-14.24,12.55c6.6,6.14,15.45,9.9,25.18,9.9       c9.16,0,17.53-3.33,23.99-8.84C61.01,58.08,54.76,52.05,47.08,52.05z"/>
    <path fill="#8E7968" d="M47.08,52.05h-5.69v-5.67h-3.97V74.5c0.03,0,0.06,0,0.09,0c9.12,0,17.46-3.3,23.91-8.77       C61.05,58.12,54.78,52.05,47.08,52.05z"/>
    <circle opacity="0.05" cx="37.19" cy="33.39" r="15.62"/>
    <circle fill="#998474" cx="36.78" cy="32.05" r="15.62"/>
    <path fill="#8E7968" d="M37.19,16.45v31.2c8.43-0.22,15.21-7.11,15.21-15.6S45.63,16.67,37.19,16.45z"/>
    <path opacity="0.1" fill="#56513A" d="M56.71,42.07l-0.23-15.12c-1.23-9.81-9.59-16.07-19.74-16.07c-9.9,0-18.09,6.6-19.62,16.07       l-0.47,15.1c-3.37,0.5-5.95,3.4-5.95,6.9c0,3.86,3.13,6.99,6.99,6.99c3.35,0,6.88-2.35,7.56-5.49l0,0       c0.07-0.42,0.16-0.86,0.16-1.3c0,0-0.04-14.81,0-19.42c1.52,0.54,2.51,0.84,4.22,0.84c6.11,0,11.55-1.66,13.71-7       c1.16,1.45,2.66,2.75,4.69,2.75c0.11,0,0,29.5,0,29.5l8.89,0c3.23-0.62,5.67-3.45,5.67-6.86C62.58,45.48,60.03,42.6,56.71,42.07z"/>
    <path fill="#E3E7E8" d="M56.71,40.82L56.48,25.7c-1.23-9.81-9.59-16.07-19.74-16.07c-9.9,0-18.09,6.6-19.62,16.07l-0.47,15.1       c-3.37,0.5-5.95,3.4-5.95,6.9c0,3.86,3.13,6.99,6.99,6.99c3.35,0,6.3-2.35,6.98-5.49h-0.03c0.07-0.42,0.11-0.86,0.11-1.3       c0,0-0.01-14.81,0.03-19.42c1.52,0.54,3.14,0.84,4.85,0.84c6.11,0,11.34-2.13,13.5-7.47c1.16,1.45,3.28,3.21,5.31,3.21       c0.11,0,0,29.5,0,29.5l8.48,0c3.23-0.62,5.67-3.45,5.67-6.86C62.58,44.23,60.03,41.35,56.71,40.82z"/>
    <path fill="#C1C5C6" d="M21.41,27.98V46.2h-0.03c-0.25,2.66-2.49,4.74-5.22,4.74c-2.83,0-5.13-2.24-5.23-5.04       c-0.16,0.58-0.24,1.19-0.24,1.81c0,3.86,3.13,6.99,6.99,6.99c3.35,0,6.3-2.35,6.98-5.49h-0.03c0.07-0.42,0.11-0.86,0.11-1.3       c0,0-0.01-14.48,0.03-19.25C23.62,28.55,22.49,28.32,21.41,27.98z"/>
    <g>
      <path fill="#C1C5C6" d="M56.71,40.85l-0.23-15.12c-1.03-8.25-7.11-13.97-15.05-15.59c0.19,0.97,0.29,1.96,0.29,2.98         c0,8.63-6.99,15.62-15.62,15.62c-0.23,0-0.46-0.02-0.7-0.04c1.34,0.41,2.75,0.65,4.22,0.65c6.11,0,11.34-2.13,13.5-7.47         c1.16,1.45,3.28,3.21,5.31,3.21c0.11,0,0,29.5,0,29.5l8.48,0c3.23-0.62,5.67-3.45,5.67-6.86C62.58,44.26,60.03,41.38,56.71,40.85         z"/>
    </g>
    <path fill="#63D5DB" d="M47.08,52.05l-9.53,13.16L26.48,52.05c-7.29,0-13.3,5.44-14.23,12.48c6.61,6.18,15.49,9.97,25.25,9.97       c9.12,0,17.46-3.3,23.91-8.77C61.05,58.12,54.78,52.05,47.08,52.05z"/>
    <path fill="#33BDD3" d="M47.08,52.05L37.5,65.21v9.29h0c9.12,0,17.46-3.31,23.91-8.77C61.05,58.12,54.78,52.05,47.08,52.05z"/>
  </svg></g><g><svg xmlns="http://www.w3.org/2000/svg" version="1.1" id="usericon_female1" x="-59570" y="-21004.953125" width="40" height="40" viewBox="0 0 75 75" xml:space="preserve" preserveAspectRatio="none">
    <path fill="#FFFFFF" d="M41.39,25.38c0,0.13-0.05,0.25-0.14,0.34l-3.64,3.64l-0.68,0.68c-0.09,0.09-0.21,0.14-0.34,0.14       s-0.25-0.05-0.34-0.14l-0.68-0.68l-1.82-1.82c-0.09-0.09-0.14-0.21-0.14-0.34s0.05-0.25,0.14-0.34l0.68-0.68       c0.09-0.09,0.21-0.14,0.34-0.14s0.25,0.05,0.34,0.14l1.48,1.48l3.29-3.3c0.09-0.09,0.21-0.14,0.34-0.14s0.25,0.05,0.34,0.14       l0.68,0.68C41.35,25.13,41.39,25.25,41.39,25.38z"/>
    <circle fill="#F4E6DC" stroke="#EADCD3" stroke-miterlimit="10" cx="37.5" cy="37.5" r="37"/>
    <rect x="18.37" y="29.42" fill="#B7B7B7" width="37.66" height="25.01"/>
    <path fill="#998474" d="M47.08,52.05h-5.69v-5.67H33v5.67h-6.52c-7.32,0-13.35,5.48-14.24,12.55c6.6,6.14,15.45,9.9,25.18,9.9       c9.16,0,17.53-3.33,23.99-8.84C61.01,58.08,54.76,52.05,47.08,52.05z"/>
    <path fill="#8E7968" d="M47.08,52.05h-5.69v-5.67h-3.97V74.5c0.03,0,0.06,0,0.09,0c9.12,0,17.46-3.3,23.91-8.77       C61.05,58.12,54.78,52.05,47.08,52.05z"/>
    <circle opacity="0.05" cx="37.19" cy="33.39" r="15.62"/>
    <circle fill="#998474" cx="36.78" cy="32.05" r="15.62"/>
    <path fill="#8E7968" d="M37.19,16.45v31.2c8.43-0.22,15.21-7.11,15.21-15.6S45.63,16.67,37.19,16.45z"/>
    <path opacity="0.1" fill="#56513A" d="M56.71,42.07l-0.23-15.12c-1.23-9.81-9.59-16.07-19.74-16.07c-9.9,0-18.09,6.6-19.62,16.07       l-0.47,15.1c-3.37,0.5-5.95,3.4-5.95,6.9c0,3.86,3.13,6.99,6.99,6.99c3.35,0,6.88-2.35,7.56-5.49l0,0       c0.07-0.42,0.16-0.86,0.16-1.3c0,0-0.04-14.81,0-19.42c1.52,0.54,2.51,0.84,4.22,0.84c6.11,0,11.55-1.66,13.71-7       c1.16,1.45,2.66,2.75,4.69,2.75c0.11,0,0,29.5,0,29.5l8.89,0c3.23-0.62,5.67-3.45,5.67-6.86C62.58,45.48,60.03,42.6,56.71,42.07z"/>
    <path fill="#E3E7E8" d="M56.71,40.82L56.48,25.7c-1.23-9.81-9.59-16.07-19.74-16.07c-9.9,0-18.09,6.6-19.62,16.07l-0.47,15.1       c-3.37,0.5-5.95,3.4-5.95,6.9c0,3.86,3.13,6.99,6.99,6.99c3.35,0,6.3-2.35,6.98-5.49h-0.03c0.07-0.42,0.11-0.86,0.11-1.3       c0,0-0.01-14.81,0.03-19.42c1.52,0.54,3.14,0.84,4.85,0.84c6.11,0,11.34-2.13,13.5-7.47c1.16,1.45,3.28,3.21,5.31,3.21       c0.11,0,0,29.5,0,29.5l8.48,0c3.23-0.62,5.67-3.45,5.67-6.86C62.58,44.23,60.03,41.35,56.71,40.82z"/>
    <path fill="#C1C5C6" d="M21.41,27.98V46.2h-0.03c-0.25,2.66-2.49,4.74-5.22,4.74c-2.83,0-5.13-2.24-5.23-5.04       c-0.16,0.58-0.24,1.19-0.24,1.81c0,3.86,3.13,6.99,6.99,6.99c3.35,0,6.3-2.35,6.98-5.49h-0.03c0.07-0.42,0.11-0.86,0.11-1.3       c0,0-0.01-14.48,0.03-19.25C23.62,28.55,22.49,28.32,21.41,27.98z"/>
    <g>
      <path fill="#C1C5C6" d="M56.71,40.85l-0.23-15.12c-1.03-8.25-7.11-13.97-15.05-15.59c0.19,0.97,0.29,1.96,0.29,2.98         c0,8.63-6.99,15.62-15.62,15.62c-0.23,0-0.46-0.02-0.7-0.04c1.34,0.41,2.75,0.65,4.22,0.65c6.11,0,11.34-2.13,13.5-7.47         c1.16,1.45,3.28,3.21,5.31,3.21c0.11,0,0,29.5,0,29.5l8.48,0c3.23-0.62,5.67-3.45,5.67-6.86C62.58,44.26,60.03,41.38,56.71,40.85         z"/>
    </g>
    <path fill="#63D5DB" d="M47.08,52.05l-9.53,13.16L26.48,52.05c-7.29,0-13.3,5.44-14.23,12.48c6.61,6.18,15.49,9.97,25.25,9.97       c9.12,0,17.46-3.3,23.91-8.77C61.05,58.12,54.78,52.05,47.08,52.05z"/>
    <path fill="#33BDD3" d="M47.08,52.05L37.5,65.21v9.29h0c9.12,0,17.46-3.31,23.91-8.77C61.05,58.12,54.78,52.05,47.08,52.05z"/>
  </svg></g><g><svg xmlns="http://www.w3.org/2000/svg" version="1.1" id="usericon_female1" x="-59630" y="-20964.953125" width="40" height="40" viewBox="0 0 75 75" xml:space="preserve" preserveAspectRatio="none">
    <path fill="#FFFFFF" d="M41.39,25.38c0,0.13-0.05,0.25-0.14,0.34l-3.64,3.64l-0.68,0.68c-0.09,0.09-0.21,0.14-0.34,0.14       s-0.25-0.05-0.34-0.14l-0.68-0.68l-1.82-1.82c-0.09-0.09-0.14-0.21-0.14-0.34s0.05-0.25,0.14-0.34l0.68-0.68       c0.09-0.09,0.21-0.14,0.34-0.14s0.25,0.05,0.34,0.14l1.48,1.48l3.29-3.3c0.09-0.09,0.21-0.14,0.34-0.14s0.25,0.05,0.34,0.14       l0.68,0.68C41.35,25.13,41.39,25.25,41.39,25.38z"/>
    <circle fill="#F4E6DC" stroke="#EADCD3" stroke-miterlimit="10" cx="37.5" cy="37.5" r="37"/>
    <rect x="18.37" y="29.42" fill="#B7B7B7" width="37.66" height="25.01"/>
    <path fill="#998474" d="M47.08,52.05h-5.69v-5.67H33v5.67h-6.52c-7.32,0-13.35,5.48-14.24,12.55c6.6,6.14,15.45,9.9,25.18,9.9       c9.16,0,17.53-3.33,23.99-8.84C61.01,58.08,54.76,52.05,47.08,52.05z"/>
    <path fill="#8E7968" d="M47.08,52.05h-5.69v-5.67h-3.97V74.5c0.03,0,0.06,0,0.09,0c9.12,0,17.46-3.3,23.91-8.77       C61.05,58.12,54.78,52.05,47.08,52.05z"/>
    <circle opacity="0.05" cx="37.19" cy="33.39" r="15.62"/>
    <circle fill="#998474" cx="36.78" cy="32.05" r="15.62"/>
    <path fill="#8E7968" d="M37.19,16.45v31.2c8.43-0.22,15.21-7.11,15.21-15.6S45.63,16.67,37.19,16.45z"/>
    <path opacity="0.1" fill="#56513A" d="M56.71,42.07l-0.23-15.12c-1.23-9.81-9.59-16.07-19.74-16.07c-9.9,0-18.09,6.6-19.62,16.07       l-0.47,15.1c-3.37,0.5-5.95,3.4-5.95,6.9c0,3.86,3.13,6.99,6.99,6.99c3.35,0,6.88-2.35,7.56-5.49l0,0       c0.07-0.42,0.16-0.86,0.16-1.3c0,0-0.04-14.81,0-19.42c1.52,0.54,2.51,0.84,4.22,0.84c6.11,0,11.55-1.66,13.71-7       c1.16,1.45,2.66,2.75,4.69,2.75c0.11,0,0,29.5,0,29.5l8.89,0c3.23-0.62,5.67-3.45,5.67-6.86C62.58,45.48,60.03,42.6,56.71,42.07z"/>
    <path fill="#E3E7E8" d="M56.71,40.82L56.48,25.7c-1.23-9.81-9.59-16.07-19.74-16.07c-9.9,0-18.09,6.6-19.62,16.07l-0.47,15.1       c-3.37,0.5-5.95,3.4-5.95,6.9c0,3.86,3.13,6.99,6.99,6.99c3.35,0,6.3-2.35,6.98-5.49h-0.03c0.07-0.42,0.11-0.86,0.11-1.3       c0,0-0.01-14.81,0.03-19.42c1.52,0.54,3.14,0.84,4.85,0.84c6.11,0,11.34-2.13,13.5-7.47c1.16,1.45,3.28,3.21,5.31,3.21       c0.11,0,0,29.5,0,29.5l8.48,0c3.23-0.62,5.67-3.45,5.67-6.86C62.58,44.23,60.03,41.35,56.71,40.82z"/>
    <path fill="#C1C5C6" d="M21.41,27.98V46.2h-0.03c-0.25,2.66-2.49,4.74-5.22,4.74c-2.83,0-5.13-2.24-5.23-5.04       c-0.16,0.58-0.24,1.19-0.24,1.81c0,3.86,3.13,6.99,6.99,6.99c3.35,0,6.3-2.35,6.98-5.49h-0.03c0.07-0.42,0.11-0.86,0.11-1.3       c0,0-0.01-14.48,0.03-19.25C23.62,28.55,22.49,28.32,21.41,27.98z"/>
    <g>
      <path fill="#C1C5C6" d="M56.71,40.85l-0.23-15.12c-1.03-8.25-7.11-13.97-15.05-15.59c0.19,0.97,0.29,1.96,0.29,2.98         c0,8.63-6.99,15.62-15.62,15.62c-0.23,0-0.46-0.02-0.7-0.04c1.34,0.41,2.75,0.65,4.22,0.65c6.11,0,11.34-2.13,13.5-7.47         c1.16,1.45,3.28,3.21,5.31,3.21c0.11,0,0,29.5,0,29.5l8.48,0c3.23-0.62,5.67-3.45,5.67-6.86C62.58,44.26,60.03,41.38,56.71,40.85         z"/>
    </g>
    <path fill="#63D5DB" d="M47.08,52.05l-9.53,13.16L26.48,52.05c-7.29,0-13.3,5.44-14.23,12.48c6.61,6.18,15.49,9.97,25.25,9.97       c9.12,0,17.46-3.3,23.91-8.77C61.05,58.12,54.78,52.05,47.08,52.05z"/>
    <path fill="#33BDD3" d="M47.08,52.05L37.5,65.21v9.29h0c9.12,0,17.46-3.31,23.91-8.77C61.05,58.12,54.78,52.05,47.08,52.05z"/>
  </svg></g><g data-referencesafe="true" transform="translate(-60266 -21279.90625)"><rect fill="#ff8c00" stroke="#FFF" stroke-width="1px" width="532" height="549.906"/><rect fill="#FFF" width="524" height="523.906" x="4" y="22"/><g class="demo-collapse-button" transform="translate(515 5)"><rect fill="#FFF" width="12" height="12" rx="1" ry="1"/><rect width="8" height="2" x="2" y="5" fill="#ff8c00" stroke-width="0"/></g></g><g transform="translate(-60262 -21275.90625)"><rect fill="rgb(255,140,0)" stroke="rgb(255,140,0)" fill-opacity="1" stroke-opacity="1" stroke-width="1" stroke-linecap="butt" stroke-linejoin="miter" stroke-miterlimit="10" width="510" height="31" x="0" y="0"/><text font-family="'Arial'" font-size="27px" font-style="normal" font-weight="bold" text-decoration="none" text-anchor="middle" fill="rgb(255,255,255)" fill-opacity="1" transform="translate(255 0)"><tspan dy="0.9074074074074074em" x="0">Edge</tspan></text></g><g><path fill="none" stroke="rgb(255,140,0)" d="M -60000,-20890.09375 L -60000,-20989.09375 Q -60000,-20989.59375 -60000.5,-20989.59375 L -60159,-20989.59375" stroke-opacity="1" stroke-width="2" stroke-linecap="butt" stroke-linejoin="miter" stroke-miterlimit="10"/><use xlink:href="#ygc375_3" transform="translate(-60163.292893218815 -20989.59375)" style="pointer-events: none;"/></g><g><path fill="none" stroke="rgb(0,0,0)" d="M -60210,-21072.90625 L -60210,-21081.53125" stroke-opacity="1" stroke-width="1" stroke-linecap="butt" stroke-linejoin="miter" stroke-miterlimit="10"/><use xlink:href="#ygc375_4" transform="matrix(0 0.75 -0.75 0 -60210 -21084.75091991411)" style="pointer-events: none;"/></g><g><path fill="none" stroke="rgb(255,140,0)" d="M -60000,-20849.09375 L -60000,-20790 L -59927.25,-20790" stroke-opacity="1" stroke-width="2" stroke-linecap="butt" stroke-linejoin="miter" stroke-miterlimit="10"/><use xlink:href="#ygc375_5" transform="matrix(-0.75 0 0 -0.75 -59924.03033008589 -20790)" style="pointer-events: none;"/></g><rect fill="rgb(253,223,152)" stroke="rgb(245,245,245)" stroke-opacity="1" stroke-width="1" stroke-linecap="butt" stroke-linejoin="miter" stroke-miterlimit="10" fill-opacity="1" width="514" height="41" x="-60257" y="-20890.1"/><g transform="translate(-60019.5 -20878.59375)"><text font-family="'Arial'" font-size="16px" font-style="normal" font-weight="normal" text-decoration="none" text-anchor="middle" fill="rgb(0,0,0)" fill-opacity="1" dy="0.875em" transform="translate(19.5 0.625)">Store</text></g><rect fill="rgb(253,223,152)" stroke="rgb(245,245,245)" stroke-opacity="1" stroke-width="1" stroke-linecap="butt" stroke-linejoin="miter" stroke-miterlimit="10" fill-opacity="1" width="90" height="344.5" x="-59835" y="-21251.8"/><g transform="translate(-59822 -21088.59375)"><text font-family="'Arial'" font-size="16px" font-style="normal" font-weight="normal" text-decoration="none" text-anchor="middle" fill="rgb(0,0,0)" fill-opacity="1" dy="0.875em" transform="translate(32 0.625)">Gateway</text></g><g><g><g transform="translate(-59789 -21340.34375)"><g transform="translate(0 0)"><rect x="0" y="0" width="271" height="24" rx="0" ry="0" stroke="rgb(255,255,255)" stroke-opacity="0" stroke-width="1" stroke-linecap="butt" stroke-linejoin="miter" stroke-miterlimit="10" fill="rgb(253,223,152)" fill-opacity="1"/><path d="M 27.1,0 L 0,0 L 0,24 L 27.1,24" stroke="rgb(255,140,0)" stroke-opacity="1" stroke-width="1" stroke-linecap="butt" stroke-linejoin="miter" stroke-miterlimit="10" fill="rgb(255,255,255)" fill-opacity="0" transform="translate(0 0)"/></g></g><g transform="translate(-59784 -21335.34375)"><text font-family="'Arial'" font-size="12px" font-style="normal" font-weight="normal" text-decoration="none" text-anchor="middle" fill="rgb(0,0,0)" fill-opacity="1" dy="0.9166666666666666em" transform="translate(130.5 0)">Gateway connects the clients to the Edge server.</text></g><g><path d="M -59660.084924623116,-21316.34375 L -59745,-21161.599244505494" stroke="rgb(255,140,0)" stroke-opacity="1" stroke-width="1" stroke-dasharray="0.01,2" stroke-dashoffset="0" stroke-linecap="round" stroke-linejoin="miter" stroke-miterlimit="10" fill="none"/></g></g></g><rect fill="rgb(253,223,152)" stroke="rgb(245,245,245)" stroke-opacity="1" stroke-width="1" stroke-linecap="butt" stroke-linejoin="miter" stroke-miterlimit="10" fill-opacity="1" width="90" height="166.625" x="-60255" y="-21252.9"/><g transform="translate(-60235.5 -21178.59375)"><text font-family="'Arial'" font-size="16px" font-style="normal" font-weight="normal" text-decoration="none" text-anchor="middle" fill="rgb(0,0,0)" fill-opacity="1" dy="0.875em" transform="translate(25.5 0.625)">Cluster</text></g><g><g><g transform="translate(-60165 -21387.90625)"><g transform="translate(0 0)"><rect x="0" y="0" width="235" height="78" rx="0" ry="0" stroke="rgb(255,255,255)" stroke-opacity="0" stroke-width="1" stroke-linecap="butt" stroke-linejoin="miter" stroke-miterlimit="10" fill="rgb(253,223,152)" fill-opacity="1"/><path d="M 23.5,0 L 0,0 L 0,78 L 23.5,78" stroke="rgb(255,140,0)" stroke-opacity="1" stroke-width="1" stroke-linecap="butt" stroke-linejoin="miter" stroke-miterlimit="10" fill="rgb(255,255,255)" fill-opacity="0" transform="translate(0 0)"/></g></g><g transform="translate(-60160 -21382.90625)"><text font-family="'Arial'" font-size="12px" font-style="normal" font-weight="normal" text-decoration="none" text-anchor="middle" fill="rgb(0,0,0)" fill-opacity="1" transform="translate(112.5 0)"><tspan dy="0.9166666666666666em" x="0">Cluster announces the status of the </tspan><tspan dy="1.5em" x="0">Edge node and provides information</tspan><tspan dy="1.5em" x="0">about other Edge nodes.</tspan><tspan dy="1.5em" x="0">Currently only GossipCluster is supported.</tspan></text></g><g><path d="M -60082.84332520042,-21309.90625 L -60165,-21219.24951923077" stroke="rgb(255,140,0)" stroke-opacity="1" stroke-width="1" stroke-dasharray="0.01,2" stroke-dashoffset="0" stroke-linecap="round" stroke-linejoin="miter" stroke-miterlimit="10" fill="none"/></g></g></g><rect fill="rgb(253,223,152)" stroke="rgb(245,245,245)" stroke-opacity="1" stroke-width="1" stroke-linecap="butt" stroke-linejoin="miter" stroke-miterlimit="10" fill-opacity="1" width="90" height="166.625" x="-60255" y="-21072.9"/><g transform="translate(-60234.5 -20998.59375)"><text font-family="'Arial'" font-size="16px" font-style="normal" font-weight="normal" text-decoration="none" text-anchor="middle" fill="rgb(0,0,0)" fill-opacity="1" dy="0.875em" transform="translate(24.5 0.625)">Tunnel</text></g><g><g><g transform="translate(-60569.75 -20948.28125)"><g transform="translate(0 0)"><rect x="0" y="0" width="292" height="42" rx="0" ry="0" stroke="rgb(255,255,255)" stroke-opacity="0" stroke-width="1" stroke-linecap="butt" stroke-linejoin="miter" stroke-miterlimit="10" fill="rgb(253,223,152)" fill-opacity="1"/><path d="M 262.8,0 L 292,0 L 292,42 L 262.8,42" stroke="rgb(255,140,0)" stroke-opacity="1" stroke-width="1" stroke-linecap="butt" stroke-linejoin="miter" stroke-miterlimit="10" fill="rgb(255,255,255)" fill-opacity="0" transform="translate(0 0)"/></g></g><g transform="translate(-60564.75 -20943.28125)"><text font-family="'Arial'" font-size="12px" font-style="normal" font-weight="normal" text-decoration="none" text-anchor="middle" fill="rgb(0,0,0)" fill-opacity="1" transform="translate(141 0)"><tspan dy="0.9166666666666666em" x="0">Tunnel connects Edge nodes to each other based on</tspan><tspan dy="1.5em" x="0">retrieved information from Cluster.</tspan></text></g><g><path d="M -60351.71389167503,-20948.28125 L -60255,-20976.47532894737" stroke="rgb(255,140,0)" stroke-opacity="1" stroke-width="1" stroke-dasharray="0.01,2" stroke-dashoffset="0" stroke-linecap="round" stroke-linejoin="miter" stroke-miterlimit="10" fill="none"/></g></g></g><g><path d="M -59922.5,-20808.225 C -59919.95,-20820.375 -59840.05,-20820.375 -59837.5,-20808.225 L -59837.5,-20771.775 C -59840.05,-20759.625 -59919.95,-20759.625 -59922.5,-20771.775 Z" stroke="rgb(253,223,152)" stroke-opacity="1" stroke-width="1" stroke-linecap="butt" stroke-linejoin="miter" stroke-miterlimit="10" fill="rgb(253,223,152)" fill-opacity="1"/><path d="M -59837.5,-20808.225 C -59840.05,-20796.075 -59919.95,-20796.075 -59922.5,-20808.225" stroke="rgb(253,223,152)" stroke-opacity="1" stroke-width="1" stroke-linecap="butt" stroke-linejoin="miter" stroke-miterlimit="10" fill="rgb(253,223,152)" fill-opacity="1"/></g><g transform="translate(-59922.5 -20820.375)"><rect fill="rgb(255,255,255)" stroke="rgb(255,255,255)" fill-opacity="0.00784313725490196" stroke-opacity="0.00784313725490196" stroke-width="1" stroke-linecap="butt" stroke-linejoin="miter" stroke-miterlimit="10" width="85" height="60.75" x="0" y="0"/><text font-family="'Arial'" font-size="12px" font-style="normal" font-weight="normal" text-decoration="none" text-anchor="middle" fill="rgb(0,0,0)" fill-opacity="1" dy="0.9166666666666666em" transform="translate(42.5 23.375)">LocalDB</text></g><g><path d="M -61153.125,-20598.75 C -61227.5,-20703.75 -61153.125,-20797.5 -61031.15,-20730 C -61031.15,-20797.5 -60828.85,-20797.5 -60828.85,-20730 C -60706.875,-20797.5 -60632.5,-20703.75 -60706.875,-20621.25 C -60632.5,-20516.25 -60706.875,-20422.5 -60799.1,-20490 C -60828.85,-20422.5 -61031.15,-20422.5 -61001.4,-20490 C -61153.125,-20422.5 -61227.5,-20516.25 -61153.125,-20598.75 Z" stroke="rgb(253,223,152)" stroke-opacity="1" stroke-width="1" stroke-linecap="butt" stroke-linejoin="miter" stroke-miterlimit="10" fill="rgb(253,223,152)" fill-opacity="1"/></g><g transform="translate(-61227.5 -20797.5)"><text font-family="'Arial'" font-size="32px" font-style="normal" font-weight="bold" text-decoration="none" text-anchor="middle" fill="rgb(0,0,0)" fill-opacity="1" dy="0.90625em" transform="translate(297.5 169.5)">Rony Cloud</text></g><g><path fill="none" stroke="rgb(253,223,152)" d="M -59623.75622316392,-20173.62090140456 L -59741.62468209825,-20290.329872950315" stroke-opacity="1" stroke-width="2" stroke-linecap="butt" stroke-linejoin="miter" stroke-miterlimit="10"/><use xlink:href="#ygc375_6" transform="matrix(0.5329449318556974 0.5277022831193041 -0.5277022831193041 0.5329449318556974 -59743.91255778221 -20292.59524250307)" style="pointer-events: none;"/></g><g><path fill="none" stroke="rgb(253,223,152)" d="M -59567.67987730562,-20208.537858386277 L -59740.72263978824,-20292.102612560793" stroke-opacity="1" stroke-width="2" stroke-linecap="butt" stroke-linejoin="miter" stroke-miterlimit="10"/><use xlink:href="#ygc375_7" transform="matrix(0.6753726650144883 0.32614684323357734 -0.32614684323357734 0.6753726650144883 -59743.621942522055 -20293.502726132447)" style="pointer-events: none;"/></g><g><path fill="none" stroke="rgb(253,223,152)" d="M -59598.750960793994,-20246.172881989376 L -59740.48819564285,-20292.833276292367" stroke-opacity="1" stroke-width="2" stroke-linecap="butt" stroke-linejoin="miter" stroke-miterlimit="10"/><use xlink:href="#ygc375_8" transform="matrix(0.7123901616547108 0.23452133714776358 -0.23452133714776358 0.7123901616547108 -59743.54641053697 -20293.840051350275)" style="pointer-events: none;"/></g><g><path fill="none" stroke="rgb(253,223,152)" d="M -59629.00482813048,-20325.595689741902 L -59740.408067723045,-20296.11468355704" stroke-opacity="1" stroke-width="2" stroke-linecap="butt" stroke-linejoin="miter" stroke-miterlimit="10"/><use xlink:href="#ygc375_9" transform="matrix(0.7250419384668746 -0.19187023600391165 0.19187023600391165 0.7250419384668746 -59743.520595344045 -20295.291005122006)" style="pointer-events: none;"/></g><g><path fill="none" stroke="rgb(253,223,152)" d="M -59659.796748928944,-20282.734870103697 L -59740.294687566464,-20293.855453921446" stroke-opacity="1" stroke-width="2" stroke-linecap="butt" stroke-linejoin="miter" stroke-miterlimit="10"/><use xlink:href="#ygc375_10" transform="matrix(0.7429440684525375 0.10263581807142794 -0.10263581807142794 0.7429440684525375 -59743.48406711988 -20294.296058528853)" style="pointer-events: none;"/></g><g><path fill="none" stroke="rgb(255,140,0)" d="M -60855.780039056546,-20449.19008462252 L -60750,-20220 L -60259.7480797412,-20206.055623911623" stroke-opacity="1" stroke-width="2" stroke-linecap="butt" stroke-linejoin="miter" stroke-miterlimit="10"/><use xlink:href="#ygc375_11" transform="matrix(-0.7496968012415763 -0.021323841308458404 0.021323841308458404 -0.7496968012415763 -60256.52971142698 -20205.964082937873)" style="pointer-events: none;"/></g><g><path fill="none" stroke="rgb(253,223,152)" d="M -59659.796748928944,-21067.687995103697 L -59740.294687566464,-21078.808578921446" stroke-opacity="1" stroke-width="2" stroke-linecap="butt" stroke-linejoin="miter" stroke-miterlimit="10"/><use xlink:href="#ygc375_12" transform="matrix(0.7429440684525375 0.10263581807142794 -0.10263581807142794 0.7429440684525375 -59743.48406711988 -21079.249183528853)" style="pointer-events: none;"/></g><g><path fill="none" stroke="rgb(253,223,152)" d="M -59629.00482813048,-21110.548814741902 L -59740.408067723045,-21081.06780855704" stroke-opacity="1" stroke-width="2" stroke-linecap="butt" stroke-linejoin="miter" stroke-miterlimit="10"/><use xlink:href="#ygc375_13" transform="matrix(0.7250419384668746 -0.19187023600391165 0.19187023600391165 0.7250419384668746 -59743.520595344045 -21080.244130122006)" style="pointer-events: none;"/></g><g><path fill="none" stroke="rgb(253,223,152)" d="M -59598.750960793994,-21031.126006989376 L -59740.48819564285,-21077.786401292367" stroke-opacity="1" stroke-width="2" stroke-linecap="butt" stroke-linejoin="miter" stroke-miterlimit="10"/><use xlink:href="#ygc375_14" transform="matrix(0.7123901616547108 0.23452133714776358 -0.23452133714776358 0.7123901616547108 -59743.54641053697 -21078.793176350275)" style="pointer-events: none;"/></g><g><path fill="none" stroke="rgb(253,223,152)" d="M -59567.67987730562,-20993.490983386277 L -59740.72263978824,-21077.055737560793" stroke-opacity="1" stroke-width="2" stroke-linecap="butt" stroke-linejoin="miter" stroke-miterlimit="10"/><use xlink:href="#ygc375_15" transform="matrix(0.6753726650144883 0.32614684323357734 -0.32614684323357734 0.6753726650144883 -59743.621942522055 -21078.455851132447)" style="pointer-events: none;"/></g><g><path fill="none" stroke="rgb(253,223,152)" d="M -59623.75622316392,-20958.57402640456 L -59741.62468209825,-21075.282997950315" stroke-opacity="1" stroke-width="2" stroke-linecap="butt" stroke-linejoin="miter" stroke-miterlimit="10"/><use xlink:href="#ygc375_16" transform="matrix(0.5329449318556974 0.5277022831193041 -0.5277022831193041 0.5329449318556974 -59743.91255778221 -21077.54836750307)" style="pointer-events: none;"/></g><g><path fill="none" stroke="rgb(255,140,0)" d="M -60843.71317251281,-20757.920275692326 L -60720,-20970 L -60259.74649830804,-20987.68253342897" stroke-opacity="1" stroke-width="2" stroke-linecap="butt" stroke-linejoin="miter" stroke-miterlimit="10"/><use xlink:href="#ygc375_17" transform="matrix(-0.7494471012702313 0.028793096353944014 -0.028793096353944014 -0.7494471012702313 -60256.52920192914 -20987.80613911706)" style="pointer-events: none;"/></g></g></svg>